<svg width="16" height="17" viewBox="0 0 16 17" fill="none" xmlns="http://www.w3.org/2000/svg">
<path fill-rule="evenodd" clip-rule="evenodd" d="M15.275 4.76493L15.1583 4.56493C15.0078 4.32308 14.7956 4.12207 14.5417 3.98093L8.95 0.884944C8.69683 0.743945 8.40942 0.669441 8.11667 0.668945H7.875C7.58225 0.669441 7.29483 0.743945 7.04167 0.884944L1.45 3.98893C1.19747 4.12914 0.987717 4.33051 0.841667 4.57293L0.725 4.77293C0.578125 5.016 0.500517 5.29192 0.5 5.57292V11.7729C0.500517 12.0539 0.578125 12.3299 0.725 12.5729L0.841667 12.7729C0.991492 13.0125 1.20041 13.2131 1.45 13.3569L7.05 16.4529C7.30192 16.5968 7.59017 16.6715 7.88333 16.6689H8.11667C8.40942 16.6684 8.69683 16.5939 8.95 16.4529L14.5417 13.3489C14.7967 13.2119 15.0072 13.0097 15.15 12.7649L15.275 12.5649C15.4201 12.3211 15.4976 12.0457 15.5 11.7649V5.56492C15.4995 5.28392 15.4219 5.008 15.275 4.76493ZM7.875 2.26894H8.11667L13 4.97293L8 7.74092L3 4.97293L7.875 2.26894ZM8.83333 14.6689L13.7083 11.9649L13.8333 11.7649V6.35692L8.83333 9.13291V14.6689Z" fill="black"/>
</svg>
