<svg width="26" height="22" viewBox="0 0 26 22" fill="none" xmlns="http://www.w3.org/2000/svg">
<path d="M23.5001 19.1667H25.8334V21.5H0.166748V19.1667H2.50008V1.66667C2.50008 1.35725 2.623 1.0605 2.84179 0.841709C3.06058 0.622916 3.35733 0.5 3.66675 0.5H15.3334C15.6428 0.5 15.9396 0.622916 16.1584 0.841709C16.3772 1.0605 16.5001 1.35725 16.5001 1.66667V19.1667H21.1667V9.83333H18.8334V7.5H22.3334C22.6428 7.5 22.9396 7.62292 23.1584 7.84171C23.3772 8.0605 23.5001 8.35725 23.5001 8.66667V19.1667ZM4.83342 2.83333V19.1667H14.1667V2.83333H4.83342ZM7.16675 9.83333H11.8334V12.1667H7.16675V9.83333ZM7.16675 5.16667H11.8334V7.5H7.16675V5.16667Z" fill="white"/>
</svg>
