<svg width="30" height="30" viewBox="0 0 30 30" fill="none" xmlns="http://www.w3.org/2000/svg">
<path d="M25.5839 9.8358H26.9999C27.7072 9.8358 28.3854 10.1168 28.8855 10.6169C29.3856 11.117 29.6666 11.7952 29.6666 12.5025V17.8358C29.6666 18.543 29.3856 19.2213 28.8855 19.7214C28.3854 20.2215 27.7072 20.5025 26.9999 20.5025H25.5839C25.2589 23.0802 24.0043 25.4507 22.0556 27.1691C20.1069 28.8876 17.5981 29.8358 14.9999 29.8358V27.1691C17.1216 27.1691 19.1565 26.3263 20.6568 24.826C22.1571 23.3257 22.9999 21.2909 22.9999 19.1691V11.1691C22.9999 9.04741 22.1571 7.01258 20.6568 5.51228C19.1565 4.01199 17.1216 3.16914 14.9999 3.16914C12.8782 3.16914 10.8434 4.01199 9.34306 5.51228C7.84277 7.01258 6.99992 9.04741 6.99992 11.1691V20.5025H2.99992C2.29267 20.5025 1.6144 20.2215 1.1143 19.7214C0.614204 19.2213 0.333252 18.543 0.333252 17.8358V12.5025C0.333252 11.7952 0.614204 11.117 1.1143 10.6169C1.6144 10.1168 2.29267 9.8358 2.99992 9.8358H4.41592C4.74129 7.25833 5.99602 4.88817 7.94468 3.17004C9.89334 1.45191 12.402 0.503906 14.9999 0.503906C17.5978 0.503906 20.1065 1.45191 22.0552 3.17004C24.0038 4.88817 25.2585 7.25833 25.5839 9.8358ZM2.99992 12.5025V17.8358H4.33325V12.5025H2.99992ZM25.6666 12.5025V17.8358H26.9999V12.5025H25.6666ZM9.34659 20.2158L10.7599 17.9545C12.0307 18.7505 13.5004 19.1716 14.9999 19.1691C16.4994 19.1716 17.9692 18.7505 19.2399 17.9545L20.6532 20.2158C18.9589 21.2773 16.9993 21.8389 14.9999 21.8358C13.0005 21.8389 11.0409 21.2773 9.34659 20.2158Z" fill="#FFFBFC"/>
</svg>
