<svg width="1440" height="800" viewBox="0 0 1440 800" fill="none" xmlns="http://www.w3.org/2000/svg">
<g clip-path="url(#clip0_114_11329)">
<rect width="1440" height="800" fill="#F85C3A"/>
<g opacity="0.1">
<path d="M142.824 38.087C60.0885 -261.719 366.571 -292.236 587.749 -201.71C716.797 -155.154 801.545 -299.94 961.41 -242.158C1121.27 -184.375 929.63 -2.3604 1174.24 91.0546C1418.85 184.47 1299.44 602.429 1085.64 607.245C871.847 612.06 930.592 682.362 716.797 843.19C503.002 1004.02 142.824 780.592 232.387 544.647C321.95 308.702 232.386 362.632 142.824 38.087Z" stroke="#FCFCFC" stroke-width="3"/>
<path d="M602.962 271.411C593.416 242.856 638.129 196.79 674.082 216.449C707.006 234.452 740.532 222.31 762.682 230.336C820.994 251.465 799.545 262.65 825.612 287.744C857.332 318.28 872.469 398.242 799.545 398.242C739.569 398.242 757.514 427.372 712.604 440.279C667.693 453.186 616.761 431.215 616.761 373.372C616.761 351.65 618.861 318.97 602.962 271.411Z" stroke="#FCFCFC" stroke-width="3"/>
<path opacity="0.5" d="M184.648 57.8411C108.567 -217.306 391.252 -249.236 595.592 -165.153C715.901 -121.192 795.992 -253.92 943.337 -200.661C1093.97 -146.211 917.797 20.2743 1142.54 107.478C1367.8 195.177 1260.62 582.41 1059.63 586.787C859.815 591.165 914.852 657.724 716.409 805.105C517.967 952.485 185.903 747.374 267.324 527.619C348.745 311.149 267.514 357.206 184.648 57.8411Z" stroke="#FCFCFC" stroke-width="3"/>
<path d="M226.474 77.5971C157.046 -172.891 415.934 -206.235 603.435 -128.594C715.005 -87.2288 790.44 -207.898 925.266 -159.162C1066.67 -108.044 905.966 42.9108 1110.84 123.904C1316.75 205.887 1221.8 562.392 1033.61 566.332C847.785 570.271 899.112 633.088 716.023 767.021C532.934 900.954 228.983 714.157 302.262 510.594C375.54 313.598 302.643 351.781 226.474 77.5971Z" stroke="#FCFCFC" stroke-width="3"/>
<path opacity="0.5" d="M268.299 97.3531C205.525 -128.476 440.615 -163.233 611.278 -92.0342C714.11 -53.2653 784.888 -161.876 907.194 -117.663C1039.36 -69.8773 894.135 65.5475 1079.14 140.33C1265.7 216.596 1182.97 542.374 1007.6 545.876C835.754 549.378 883.372 608.452 715.637 728.938C547.901 849.424 272.063 680.94 337.2 493.568C402.336 316.047 337.772 346.357 268.299 97.3531Z" stroke="#FCFCFC" stroke-width="3"/>
<path d="M310.125 117.112C254.004 -84.0578 465.297 -120.229 619.121 -55.4725C713.215 -19.2993 779.336 -115.851 889.123 -76.1622C1012.06 -31.7081 882.304 88.1866 1047.45 156.758C1214.64 227.308 1144.15 522.359 981.585 525.423C823.724 528.488 867.633 583.818 715.25 690.857C562.868 797.895 315.143 647.726 372.138 476.545C429.132 318.499 372.901 340.935 310.125 117.112Z" stroke="#FCFCFC" stroke-width="3"/>
<path opacity="0.5" d="M351.951 137.871C302.483 -38.639 489.979 -76.2237 626.965 -17.9097C712.319 15.6677 773.785 -68.8257 871.052 -33.6599C984.756 7.46206 870.473 111.827 1015.75 174.187C1163.59 239.021 1105.33 503.345 955.571 505.971C811.693 508.598 851.893 560.185 714.864 653.777C577.834 747.368 358.223 615.513 407.075 460.523C455.928 321.952 408.03 336.514 351.951 137.871Z" stroke="#FCFCFC" stroke-width="3"/>
<path d="M393.778 159.814C350.964 7.96314 514.663 -31.0351 634.809 20.8365C711.426 51.8181 768.234 -20.6167 852.982 10.0259C957.455 47.8156 858.644 136.65 984.05 192.799C1112.54 251.917 1066.51 485.514 929.558 487.703C799.664 489.892 836.155 537.736 714.479 617.88C592.803 698.024 401.305 584.483 442.015 445.684C482.725 326.588 443.16 333.276 393.778 159.814Z" stroke="#FCFCFC" stroke-width="3"/>
<path opacity="0.5" d="M435.606 181.823C399.446 54.6307 539.347 14.2189 642.656 59.6481C710.533 88.034 762.685 27.6578 834.914 53.777C930.154 88.2347 846.816 161.539 952.354 211.477C1061.49 264.879 1027.7 467.749 903.547 469.5C787.637 471.251 820.419 515.352 714.096 582.049C607.772 648.745 444.387 553.518 476.956 430.911C509.524 331.289 478.292 330.104 435.606 181.823Z" stroke="#FCFCFC" stroke-width="3"/>
<path d="M477.435 203.927C447.929 101.394 564.033 59.5687 650.502 98.5555C709.641 124.346 757.137 76.0281 816.846 97.624C902.854 128.75 834.988 186.524 920.659 230.251C1010.44 277.936 988.88 450.079 877.537 451.392C775.61 452.706 804.683 493.064 713.713 546.314C622.743 599.563 487.471 522.65 511.897 416.233C536.323 336.087 513.424 327.027 477.435 203.927Z" stroke="#FCFCFC" stroke-width="3"/>
<path opacity="0.5" d="M519.267 226.17C496.414 148.297 588.721 105.058 658.352 137.602C708.753 160.797 751.592 124.538 798.781 141.61C875.558 169.404 823.164 211.648 888.966 249.164C959.394 291.133 950.066 432.549 851.529 433.424C763.586 434.3 788.95 470.916 713.333 510.718C637.716 550.519 530.558 491.921 546.842 401.695C563.126 341.023 548.56 324.09 519.267 226.17Z" stroke="#FCFCFC" stroke-width="3"/>
<path d="M561.106 248.625C544.907 195.411 613.416 150.759 666.209 176.861C707.871 197.459 746.053 173.259 780.723 185.808C848.267 210.269 811.346 236.984 857.281 268.289C908.355 304.542 911.259 415.23 825.529 415.668C751.569 416.106 773.224 448.979 712.96 475.333C652.696 501.688 573.651 461.403 581.793 387.368C589.935 346.172 583.702 321.365 561.106 248.625Z" stroke="#FCFCFC" stroke-width="3"/>
</g>
</g>
<defs>
<clipPath id="clip0_114_11329">
<rect width="1440" height="800" fill="white"/>
</clipPath>
</defs>
</svg>
