<svg width="560" height="380" viewBox="0 0 560 380" fill="none" xmlns="http://www.w3.org/2000/svg">
<g filter="url(#filter0_d_114_13241)">
<rect x="30" y="30" width="500" height="320" rx="12" fill="white" shape-rendering="crispEdges"/>
<rect x="163" y="62" width="12" height="8" fill="#6C63F0"/>
<path d="M180.199 62.5351V61.5164H187.312V62.5351H184.33V71H183.181V62.5351H180.199ZM191.539 71.1482C190.853 71.1482 190.262 70.9969 189.765 70.6944C189.271 70.3888 188.89 69.9627 188.621 69.4163C188.356 68.8668 188.223 68.2278 188.223 67.4992C188.223 66.7706 188.356 66.1285 188.621 65.5728C188.89 65.0141 189.263 64.5788 189.742 64.267C190.224 63.9521 190.785 63.7947 191.427 63.7947C191.798 63.7947 192.164 63.8564 192.525 63.9799C192.886 64.1034 193.215 64.304 193.511 64.5819C193.808 64.8566 194.044 65.2209 194.22 65.6747C194.396 66.1285 194.484 66.6873 194.484 67.351V67.8141H189.001V66.8694H193.372C193.372 66.4681 193.292 66.11 193.132 65.7951C192.974 65.4802 192.749 65.2317 192.455 65.0496C192.165 64.8674 191.823 64.7764 191.427 64.7764C190.992 64.7764 190.616 64.8844 190.298 65.1005C189.983 65.3135 189.74 65.5914 189.571 65.934C189.401 66.2767 189.316 66.6441 189.316 67.0361V67.6659C189.316 68.2031 189.409 68.6584 189.594 69.032C189.782 69.4024 190.043 69.6849 190.376 69.8794C190.71 70.0708 191.097 70.1665 191.539 70.1665C191.826 70.1665 192.085 70.1263 192.317 70.0461C192.551 69.9627 192.753 69.8392 192.923 69.6756C193.093 69.5089 193.224 69.3021 193.317 69.0551L194.373 69.3515C194.261 69.7096 194.075 70.0245 193.812 70.2961C193.55 70.5647 193.226 70.7746 192.84 70.9259C192.454 71.0741 192.02 71.1482 191.539 71.1482ZM201.836 65.4802L200.855 65.7581C200.793 65.5945 200.702 65.4355 200.581 65.2811C200.464 65.1237 200.304 64.994 200.1 64.8921C199.896 64.7903 199.635 64.7393 199.317 64.7393C198.882 64.7393 198.519 64.8396 198.229 65.0403C197.942 65.2379 197.798 65.4895 197.798 65.7951C197.798 66.0668 197.897 66.2813 198.095 66.4388C198.292 66.5962 198.601 66.7274 199.021 66.8324L200.077 67.0917C200.713 67.2461 201.186 67.4822 201.498 67.8002C201.81 68.1151 201.966 68.521 201.966 69.0181C201.966 69.4256 201.849 69.7898 201.614 70.1109C201.383 70.432 201.058 70.6851 200.642 70.8703C200.225 71.0556 199.74 71.1482 199.188 71.1482C198.462 71.1482 197.862 70.9907 197.386 70.6759C196.911 70.361 196.61 69.901 196.483 69.2959L197.521 69.0366C197.619 69.4194 197.806 69.7065 198.081 69.8979C198.359 70.0893 198.721 70.185 199.169 70.185C199.678 70.185 200.083 70.077 200.382 69.8609C200.685 69.6417 200.836 69.3793 200.836 69.0736C200.836 68.8267 200.75 68.6198 200.577 68.4531C200.404 68.2833 200.138 68.1568 199.78 68.0734L198.595 67.7956C197.943 67.6412 197.465 67.402 197.159 67.0778C196.857 66.7506 196.706 66.3415 196.706 65.8507C196.706 65.4494 196.818 65.0943 197.044 64.7856C197.272 64.4769 197.582 64.2346 197.974 64.0586C198.369 63.8826 198.817 63.7947 199.317 63.7947C200.021 63.7947 200.574 63.949 200.975 64.2577C201.379 64.5664 201.667 64.9739 201.836 65.4802ZM207.356 63.8873V64.8134H203.67V63.8873H207.356ZM204.745 62.1832H205.837V68.9625C205.837 69.2712 205.882 69.5027 205.972 69.6571C206.064 69.8084 206.182 69.9102 206.324 69.9627C206.469 70.0121 206.622 70.0368 206.782 70.0368C206.903 70.0368 207.001 70.0306 207.078 70.0183C207.156 70.0029 207.217 69.9905 207.264 69.9813L207.486 70.963C207.412 70.9907 207.308 71.0185 207.176 71.0463C207.043 71.0772 206.875 71.0926 206.671 71.0926C206.362 71.0926 206.06 71.0262 205.763 70.8935C205.47 70.7607 205.226 70.5585 205.032 70.2869C204.84 70.0152 204.745 69.6725 204.745 69.2589V62.1832Z" fill="black" fill-opacity="0.85"/>
<rect x="225" y="62" width="12" height="8" fill="#3AACFF"/>
<path d="M245.337 63.8873V64.8134H241.651V63.8873H245.337ZM242.725 62.1832H243.818V68.9625C243.818 69.2712 243.863 69.5027 243.952 69.6571C244.045 69.8084 244.162 69.9102 244.304 69.9627C244.449 70.0121 244.602 70.0368 244.763 70.0368C244.883 70.0368 244.982 70.0306 245.059 70.0183C245.136 70.0029 245.198 69.9905 245.244 69.9813L245.467 70.963C245.393 70.9907 245.289 71.0185 245.156 71.0463C245.024 71.0772 244.855 71.0926 244.652 71.0926C244.343 71.0926 244.04 71.0262 243.744 70.8935C243.451 70.7607 243.207 70.5585 243.012 70.2869C242.821 70.0152 242.725 69.6725 242.725 69.2589V62.1832ZM250.539 71.1482C249.853 71.1482 249.262 70.9969 248.765 70.6944C248.271 70.3888 247.89 69.9627 247.621 69.4163C247.356 68.8668 247.223 68.2278 247.223 67.4992C247.223 66.7706 247.356 66.1285 247.621 65.5728C247.89 65.0141 248.263 64.5788 248.742 64.267C249.224 63.9521 249.785 63.7947 250.427 63.7947C250.798 63.7947 251.164 63.8564 251.525 63.9799C251.886 64.1034 252.215 64.304 252.511 64.5819C252.808 64.8566 253.044 65.2209 253.22 65.6747C253.396 66.1285 253.484 66.6873 253.484 67.351V67.8141H248.001V66.8694H252.372C252.372 66.4681 252.292 66.11 252.132 65.7951C251.974 65.4802 251.749 65.2317 251.455 65.0496C251.165 64.8674 250.823 64.7764 250.427 64.7764C249.992 64.7764 249.616 64.8844 249.298 65.1005C248.983 65.3135 248.74 65.5914 248.571 65.934C248.401 66.2767 248.316 66.6441 248.316 67.0361V67.6659C248.316 68.2031 248.409 68.6584 248.594 69.032C248.782 69.4024 249.043 69.6849 249.376 69.8794C249.71 70.0708 250.097 70.1665 250.539 70.1665C250.826 70.1665 251.085 70.1263 251.317 70.0461C251.551 69.9627 251.753 69.8392 251.923 69.6756C252.093 69.5089 252.224 69.3021 252.317 69.0551L253.373 69.3515C253.261 69.7096 253.075 70.0245 252.812 70.2961C252.55 70.5647 252.226 70.7746 251.84 70.9259C251.454 71.0741 251.02 71.1482 250.539 71.1482ZM260.836 65.4802L259.855 65.7581C259.793 65.5945 259.702 65.4355 259.581 65.2811C259.464 65.1237 259.304 64.994 259.1 64.8921C258.896 64.7903 258.635 64.7393 258.317 64.7393C257.882 64.7393 257.519 64.8396 257.229 65.0403C256.942 65.2379 256.798 65.4895 256.798 65.7951C256.798 66.0668 256.897 66.2813 257.095 66.4388C257.292 66.5962 257.601 66.7274 258.021 66.8324L259.077 67.0917C259.713 67.2461 260.186 67.4822 260.498 67.8002C260.81 68.1151 260.966 68.521 260.966 69.0181C260.966 69.4256 260.849 69.7898 260.614 70.1109C260.383 70.432 260.058 70.6851 259.642 70.8703C259.225 71.0556 258.74 71.1482 258.188 71.1482C257.462 71.1482 256.862 70.9907 256.386 70.6759C255.911 70.361 255.61 69.901 255.483 69.2959L256.521 69.0366C256.619 69.4194 256.806 69.7065 257.081 69.8979C257.359 70.0893 257.721 70.185 258.169 70.185C258.678 70.185 259.083 70.077 259.382 69.8609C259.685 69.6417 259.836 69.3793 259.836 69.0736C259.836 68.8267 259.75 68.6198 259.577 68.4531C259.404 68.2833 259.138 68.1568 258.78 68.0734L257.595 67.7956C256.943 67.6412 256.465 67.402 256.159 67.0778C255.857 66.7506 255.706 66.3415 255.706 65.8507C255.706 65.4494 255.818 65.0943 256.044 64.7856C256.272 64.4769 256.582 64.2346 256.974 64.0586C257.369 63.8826 257.817 63.7947 258.317 63.7947C259.021 63.7947 259.574 63.949 259.975 64.2577C260.379 64.5664 260.667 64.9739 260.836 65.4802ZM266.356 63.8873V64.8134H262.67V63.8873H266.356ZM263.745 62.1832H264.837V68.9625C264.837 69.2712 264.882 69.5027 264.972 69.6571C265.064 69.8084 265.182 69.9102 265.324 69.9627C265.469 70.0121 265.622 70.0368 265.782 70.0368C265.903 70.0368 266.001 70.0306 266.078 70.0183C266.156 70.0029 266.217 69.9905 266.264 69.9813L266.486 70.963C266.412 70.9907 266.308 71.0185 266.176 71.0463C266.043 71.0772 265.875 71.0926 265.671 71.0926C265.362 71.0926 265.06 71.0262 264.763 70.8935C264.47 70.7607 264.226 70.5585 264.032 70.2869C263.84 70.0152 263.745 69.6725 263.745 69.2589V62.1832Z" fill="black" fill-opacity="0.85"/>
<rect x="284" y="62" width="12" height="8" fill="#ED589D"/>
<path d="M304.337 63.8873V64.8134H300.651V63.8873H304.337ZM301.725 62.1832H302.818V68.9625C302.818 69.2712 302.863 69.5027 302.952 69.6571C303.045 69.8084 303.162 69.9102 303.304 69.9627C303.449 70.0121 303.602 70.0368 303.763 70.0368C303.883 70.0368 303.982 70.0306 304.059 70.0183C304.136 70.0029 304.198 69.9905 304.244 69.9813L304.467 70.963C304.393 70.9907 304.289 71.0185 304.156 71.0463C304.024 71.0772 303.855 71.0926 303.652 71.0926C303.343 71.0926 303.04 71.0262 302.744 70.8935C302.451 70.7607 302.207 70.5585 302.012 70.2869C301.821 70.0152 301.725 69.6725 301.725 69.2589V62.1832ZM309.539 71.1482C308.853 71.1482 308.262 70.9969 307.765 70.6944C307.271 70.3888 306.89 69.9627 306.621 69.4163C306.356 68.8668 306.223 68.2278 306.223 67.4992C306.223 66.7706 306.356 66.1285 306.621 65.5728C306.89 65.0141 307.263 64.5788 307.742 64.267C308.224 63.9521 308.785 63.7947 309.427 63.7947C309.798 63.7947 310.164 63.8564 310.525 63.9799C310.886 64.1034 311.215 64.304 311.511 64.5819C311.808 64.8566 312.044 65.2209 312.22 65.6747C312.396 66.1285 312.484 66.6873 312.484 67.351V67.8141H307.001V66.8694H311.372C311.372 66.4681 311.292 66.11 311.132 65.7951C310.974 65.4802 310.749 65.2317 310.455 65.0496C310.165 64.8674 309.823 64.7764 309.427 64.7764C308.992 64.7764 308.616 64.8844 308.298 65.1005C307.983 65.3135 307.74 65.5914 307.571 65.934C307.401 66.2767 307.316 66.6441 307.316 67.0361V67.6659C307.316 68.2031 307.409 68.6584 307.594 69.032C307.782 69.4024 308.043 69.6849 308.376 69.8794C308.71 70.0708 309.097 70.1665 309.539 70.1665C309.826 70.1665 310.085 70.1263 310.317 70.0461C310.551 69.9627 310.753 69.8392 310.923 69.6756C311.093 69.5089 311.224 69.3021 311.317 69.0551L312.373 69.3515C312.261 69.7096 312.075 70.0245 311.812 70.2961C311.55 70.5647 311.226 70.7746 310.84 70.9259C310.454 71.0741 310.02 71.1482 309.539 71.1482ZM319.836 65.4802L318.855 65.7581C318.793 65.5945 318.702 65.4355 318.581 65.2811C318.464 65.1237 318.304 64.994 318.1 64.8921C317.896 64.7903 317.635 64.7393 317.317 64.7393C316.882 64.7393 316.519 64.8396 316.229 65.0403C315.942 65.2379 315.798 65.4895 315.798 65.7951C315.798 66.0668 315.897 66.2813 316.095 66.4388C316.292 66.5962 316.601 66.7274 317.021 66.8324L318.077 67.0917C318.713 67.2461 319.186 67.4822 319.498 67.8002C319.81 68.1151 319.966 68.521 319.966 69.0181C319.966 69.4256 319.849 69.7898 319.614 70.1109C319.383 70.432 319.058 70.6851 318.642 70.8703C318.225 71.0556 317.74 71.1482 317.188 71.1482C316.462 71.1482 315.862 70.9907 315.386 70.6759C314.911 70.361 314.61 69.901 314.483 69.2959L315.521 69.0366C315.619 69.4194 315.806 69.7065 316.081 69.8979C316.359 70.0893 316.721 70.185 317.169 70.185C317.678 70.185 318.083 70.077 318.382 69.8609C318.685 69.6417 318.836 69.3793 318.836 69.0736C318.836 68.8267 318.75 68.6198 318.577 68.4531C318.404 68.2833 318.138 68.1568 317.78 68.0734L316.595 67.7956C315.943 67.6412 315.465 67.402 315.159 67.0778C314.857 66.7506 314.706 66.3415 314.706 65.8507C314.706 65.4494 314.818 65.0943 315.044 64.7856C315.272 64.4769 315.582 64.2346 315.974 64.0586C316.369 63.8826 316.817 63.7947 317.317 63.7947C318.021 63.7947 318.574 63.949 318.975 64.2577C319.379 64.5664 319.667 64.9739 319.836 65.4802ZM325.356 63.8873V64.8134H321.67V63.8873H325.356ZM322.745 62.1832H323.837V68.9625C323.837 69.2712 323.882 69.5027 323.972 69.6571C324.064 69.8084 324.182 69.9102 324.324 69.9627C324.469 70.0121 324.622 70.0368 324.782 70.0368C324.903 70.0368 325.001 70.0306 325.078 70.0183C325.156 70.0029 325.217 69.9905 325.264 69.9813L325.486 70.963C325.412 70.9907 325.308 71.0185 325.176 71.0463C325.043 71.0772 324.875 71.0926 324.671 71.0926C324.362 71.0926 324.06 71.0262 323.763 70.8935C323.47 70.7607 323.226 70.5585 323.032 70.2869C322.84 70.0152 322.745 69.6725 322.745 69.2589V62.1832Z" fill="black" fill-opacity="0.85"/>
<rect x="343" y="62" width="12" height="8" fill="#FB466C"/>
<path d="M363.337 63.8873V64.8134H359.651V63.8873H363.337ZM360.725 62.1832H361.818V68.9625C361.818 69.2712 361.863 69.5027 361.952 69.6571C362.045 69.8084 362.162 69.9102 362.304 69.9627C362.449 70.0121 362.602 70.0368 362.763 70.0368C362.883 70.0368 362.982 70.0306 363.059 70.0183C363.136 70.0029 363.198 69.9905 363.244 69.9813L363.467 70.963C363.393 70.9907 363.289 71.0185 363.156 71.0463C363.024 71.0772 362.855 71.0926 362.652 71.0926C362.343 71.0926 362.04 71.0262 361.744 70.8935C361.451 70.7607 361.207 70.5585 361.012 70.2869C360.821 70.0152 360.725 69.6725 360.725 69.2589V62.1832ZM368.539 71.1482C367.853 71.1482 367.262 70.9969 366.765 70.6944C366.271 70.3888 365.89 69.9627 365.621 69.4163C365.356 68.8668 365.223 68.2278 365.223 67.4992C365.223 66.7706 365.356 66.1285 365.621 65.5728C365.89 65.0141 366.263 64.5788 366.742 64.267C367.224 63.9521 367.785 63.7947 368.427 63.7947C368.798 63.7947 369.164 63.8564 369.525 63.9799C369.886 64.1034 370.215 64.304 370.511 64.5819C370.808 64.8566 371.044 65.2209 371.22 65.6747C371.396 66.1285 371.484 66.6873 371.484 67.351V67.8141H366.001V66.8694H370.372C370.372 66.4681 370.292 66.11 370.132 65.7951C369.974 65.4802 369.749 65.2317 369.455 65.0496C369.165 64.8674 368.823 64.7764 368.427 64.7764C367.992 64.7764 367.616 64.8844 367.298 65.1005C366.983 65.3135 366.74 65.5914 366.571 65.934C366.401 66.2767 366.316 66.6441 366.316 67.0361V67.6659C366.316 68.2031 366.409 68.6584 366.594 69.032C366.782 69.4024 367.043 69.6849 367.376 69.8794C367.71 70.0708 368.097 70.1665 368.539 70.1665C368.826 70.1665 369.085 70.1263 369.317 70.0461C369.551 69.9627 369.753 69.8392 369.923 69.6756C370.093 69.5089 370.224 69.3021 370.317 69.0551L371.373 69.3515C371.261 69.7096 371.075 70.0245 370.812 70.2961C370.55 70.5647 370.226 70.7746 369.84 70.9259C369.454 71.0741 369.02 71.1482 368.539 71.1482ZM378.836 65.4802L377.855 65.7581C377.793 65.5945 377.702 65.4355 377.581 65.2811C377.464 65.1237 377.304 64.994 377.1 64.8921C376.896 64.7903 376.635 64.7393 376.317 64.7393C375.882 64.7393 375.519 64.8396 375.229 65.0403C374.942 65.2379 374.798 65.4895 374.798 65.7951C374.798 66.0668 374.897 66.2813 375.095 66.4388C375.292 66.5962 375.601 66.7274 376.021 66.8324L377.077 67.0917C377.713 67.2461 378.186 67.4822 378.498 67.8002C378.81 68.1151 378.966 68.521 378.966 69.0181C378.966 69.4256 378.849 69.7898 378.614 70.1109C378.383 70.432 378.058 70.6851 377.642 70.8703C377.225 71.0556 376.74 71.1482 376.188 71.1482C375.462 71.1482 374.862 70.9907 374.386 70.6759C373.911 70.361 373.61 69.901 373.483 69.2959L374.521 69.0366C374.619 69.4194 374.806 69.7065 375.081 69.8979C375.359 70.0893 375.721 70.185 376.169 70.185C376.678 70.185 377.083 70.077 377.382 69.8609C377.685 69.6417 377.836 69.3793 377.836 69.0736C377.836 68.8267 377.75 68.6198 377.577 68.4531C377.404 68.2833 377.138 68.1568 376.78 68.0734L375.595 67.7956C374.943 67.6412 374.465 67.402 374.159 67.0778C373.857 66.7506 373.706 66.3415 373.706 65.8507C373.706 65.4494 373.818 65.0943 374.044 64.7856C374.272 64.4769 374.582 64.2346 374.974 64.0586C375.369 63.8826 375.817 63.7947 376.317 63.7947C377.021 63.7947 377.574 63.949 377.975 64.2577C378.379 64.5664 378.667 64.9739 378.836 65.4802ZM384.356 63.8873V64.8134H380.67V63.8873H384.356ZM381.745 62.1832H382.837V68.9625C382.837 69.2712 382.882 69.5027 382.972 69.6571C383.064 69.8084 383.182 69.9102 383.324 69.9627C383.469 70.0121 383.622 70.0368 383.782 70.0368C383.903 70.0368 384.001 70.0306 384.078 70.0183C384.156 70.0029 384.217 69.9905 384.264 69.9813L384.486 70.963C384.412 70.9907 384.308 71.0185 384.176 71.0463C384.043 71.0772 383.875 71.0926 383.671 71.0926C383.362 71.0926 383.06 71.0262 382.763 70.8935C382.47 70.7607 382.226 70.5585 382.032 70.2869C381.84 70.0152 381.745 69.6725 381.745 69.2589V62.1832Z" fill="black" fill-opacity="0.85"/>
<path d="M49.8387 99.1V98.0997L53.5951 93.9877C54.0359 93.5061 54.3989 93.0875 54.6842 92.7319C54.9694 92.3725 55.1806 92.0354 55.3177 91.7205C55.4584 91.4019 55.5288 91.0685 55.5288 90.7203C55.5288 90.3202 55.4325 89.9738 55.2399 89.6812C55.0509 89.3885 54.7916 89.1625 54.4619 89.0032C54.1322 88.8439 53.7618 88.7643 53.3506 88.7643C52.9134 88.7643 52.5319 88.8551 52.2059 89.0366C51.8836 89.2144 51.6335 89.4645 51.4557 89.7867C51.2816 90.109 51.1945 90.4869 51.1945 90.9203H49.8831C49.8831 90.2535 50.0368 89.6682 50.3443 89.1644C50.6518 88.6606 51.0704 88.2679 51.6002 87.9863C52.1336 87.7048 52.7319 87.564 53.395 87.564C54.0618 87.564 54.6527 87.7048 55.1676 87.9863C55.6826 88.2679 56.0864 88.6476 56.379 89.1255C56.6717 89.6034 56.818 90.135 56.818 90.7203C56.818 91.1389 56.7421 91.5483 56.5902 91.9484C56.442 92.3447 56.1827 92.7874 55.8122 93.2764C55.4455 93.7617 54.9361 94.3545 54.2841 95.0546L51.728 97.7886V97.8775H57.0181V99.1H49.8387ZM63.6518 99.2556C62.9998 99.2556 62.4126 99.1259 61.8903 98.8666C61.3679 98.6073 60.9493 98.2516 60.6344 97.7997C60.3196 97.3477 60.1473 96.8328 60.1177 96.2549H61.4513C61.5032 96.7698 61.7365 97.1958 62.1514 97.533C62.5701 97.8664 63.0702 98.0331 63.6518 98.0331C64.1186 98.0331 64.5335 97.9238 64.8965 97.7052C65.2633 97.4866 65.5504 97.1866 65.7578 96.805C65.969 96.4197 66.0746 95.9845 66.0746 95.4992C66.0746 95.0027 65.9653 94.5601 65.7467 94.1711C65.5318 93.7784 65.2355 93.4691 64.8576 93.2431C64.4798 93.0171 64.0482 92.9023 63.5629 92.8986C63.2147 92.8949 62.8572 92.9486 62.4904 93.0597C62.1237 93.1671 61.8217 93.3061 61.5847 93.4765L60.2955 93.3209L60.9845 87.7196H66.897V88.9421H62.1403L61.7402 92.2984H61.8069C62.0403 92.1132 62.333 91.9595 62.6849 91.8372C63.0368 91.715 63.4036 91.6538 63.7852 91.6538C64.4816 91.6538 65.1021 91.8205 65.6467 92.154C66.195 92.4837 66.6247 92.9356 66.9359 93.5098C67.2508 94.084 67.4082 94.7397 67.4082 95.4769C67.4082 96.203 67.2452 96.8513 66.9192 97.4218C66.5969 97.9886 66.1524 98.4369 65.5856 98.7666C65.0188 99.0926 64.3742 99.2556 63.6518 99.2556ZM74.11 99.2556C73.2728 99.2556 72.5596 99.0277 71.9706 98.5721C71.3816 98.1127 70.9315 97.4477 70.6203 96.5772C70.3091 95.7029 70.1535 94.6471 70.1535 93.4098C70.1535 92.1799 70.3091 91.1296 70.6203 90.2591C70.9352 89.3848 71.3872 88.718 71.9762 88.2586C72.5689 87.7956 73.2802 87.564 74.11 87.564C74.9398 87.564 75.6492 87.7956 76.2383 88.2586C76.831 88.718 77.2829 89.3848 77.5941 90.2591C77.909 91.1296 78.0665 92.1799 78.0665 93.4098C78.0665 94.6471 77.9109 95.7029 77.5997 96.5772C77.2885 97.4477 76.8384 98.1127 76.2494 98.5721C75.6604 99.0277 74.9472 99.2556 74.11 99.2556ZM74.11 98.0331C74.9398 98.0331 75.5844 97.633 76.0438 96.8328C76.5031 96.0326 76.7328 94.8916 76.7328 93.4098C76.7328 92.4244 76.6272 91.5853 76.4161 90.8926C76.2086 90.1998 75.9086 89.6719 75.5159 89.3089C75.1269 88.9458 74.6583 88.7643 74.11 88.7643C73.2876 88.7643 72.6449 89.1699 72.1818 89.9812C71.7187 90.7888 71.4872 91.9317 71.4872 93.4098C71.4872 94.3952 71.5909 95.2324 71.7984 95.9215C72.0058 96.6105 72.304 97.1347 72.693 97.4941C73.0857 97.8534 73.558 98.0331 74.11 98.0331Z" fill="black" fill-opacity="0.85"/>
<line x1="87" y1="93.1" x2="490" y2="93.1" stroke="black" stroke-opacity="0.2" stroke-dasharray="2 2"/>
<path d="M49.5789 138.3V137.3L53.3353 133.188C53.7761 132.706 54.1392 132.288 54.4244 131.932C54.7097 131.573 54.9208 131.235 55.0579 130.921C55.1987 130.602 55.2691 130.269 55.2691 129.92C55.2691 129.52 55.1727 129.174 54.9801 128.881C54.7912 128.589 54.5318 128.363 54.2021 128.203C53.8724 128.044 53.502 127.964 53.0908 127.964C52.6536 127.964 52.2721 128.055 51.9461 128.237C51.6238 128.414 51.3737 128.664 51.1959 128.987C51.0218 129.309 50.9347 129.687 50.9347 130.12H49.6233C49.6233 129.454 49.7771 128.868 50.0845 128.364C50.392 127.861 50.8106 127.468 51.3404 127.186C51.8738 126.905 52.4721 126.764 53.1352 126.764C53.8021 126.764 54.3929 126.905 54.9079 127.186C55.4228 127.468 55.8266 127.848 56.1192 128.325C56.4119 128.803 56.5582 129.335 56.5582 129.92C56.5582 130.339 56.4823 130.748 56.3304 131.148C56.1822 131.545 55.9229 131.987 55.5524 132.476C55.1857 132.962 54.6763 133.554 54.0243 134.255L51.4682 136.989V137.077H56.7583V138.3H49.5789ZM63.5476 138.456C62.7104 138.456 61.9972 138.228 61.4082 137.772C60.8192 137.313 60.3691 136.648 60.0579 135.777C59.7467 134.903 59.5911 133.847 59.5911 132.61C59.5911 131.38 59.7467 130.33 60.0579 129.459C60.3728 128.585 60.8248 127.918 61.4138 127.459C62.0065 126.996 62.7178 126.764 63.5476 126.764C64.3774 126.764 65.0868 126.996 65.6759 127.459C66.2686 127.918 66.7205 128.585 67.0317 129.459C67.3466 130.33 67.5041 131.38 67.5041 132.61C67.5041 133.847 67.3485 134.903 67.0373 135.777C66.7261 136.648 66.276 137.313 65.687 137.772C65.098 138.228 64.3848 138.456 63.5476 138.456ZM63.5476 137.233C64.3774 137.233 65.022 136.833 65.4814 136.033C65.9407 135.233 66.1704 134.092 66.1704 132.61C66.1704 131.624 66.0648 130.785 65.8537 130.093C65.6462 129.4 65.3462 128.872 64.9535 128.509C64.5645 128.146 64.0959 127.964 63.5476 127.964C62.7252 127.964 62.0825 128.37 61.6194 129.181C61.1563 129.989 60.9248 131.132 60.9248 132.61C60.9248 133.595 61.0285 134.432 61.236 135.121C61.4434 135.811 61.7416 136.335 62.1306 136.694C62.5233 137.053 62.9956 137.233 63.5476 137.233ZM74.11 138.456C73.2728 138.456 72.5596 138.228 71.9706 137.772C71.3816 137.313 70.9315 136.648 70.6203 135.777C70.3091 134.903 70.1535 133.847 70.1535 132.61C70.1535 131.38 70.3091 130.33 70.6203 129.459C70.9352 128.585 71.3872 127.918 71.9762 127.459C72.5689 126.996 73.2802 126.764 74.11 126.764C74.9398 126.764 75.6492 126.996 76.2383 127.459C76.831 127.918 77.2829 128.585 77.5941 129.459C77.909 130.33 78.0665 131.38 78.0665 132.61C78.0665 133.847 77.9109 134.903 77.5997 135.777C77.2885 136.648 76.8384 137.313 76.2494 137.772C75.6604 138.228 74.9472 138.456 74.11 138.456ZM74.11 137.233C74.9398 137.233 75.5844 136.833 76.0438 136.033C76.5031 135.233 76.7328 134.092 76.7328 132.61C76.7328 131.624 76.6272 130.785 76.4161 130.093C76.2086 129.4 75.9086 128.872 75.5159 128.509C75.1269 128.146 74.6583 127.964 74.11 127.964C73.2876 127.964 72.6449 128.37 72.1818 129.181C71.7187 129.989 71.4872 131.132 71.4872 132.61C71.4872 133.595 71.5909 134.432 71.7984 135.121C72.0058 135.811 72.304 136.335 72.693 136.694C73.0857 137.053 73.558 137.233 74.11 137.233Z" fill="black" fill-opacity="0.85"/>
<line x1="87" y1="132.3" x2="490" y2="132.3" stroke="black" stroke-opacity="0.2" stroke-dasharray="2 2"/>
<path d="M56.0401 166.12V177.5H54.662V167.564H54.5953L51.8169 169.409V168.009L54.662 166.12H56.0401ZM63.6518 177.656C62.9998 177.656 62.4126 177.526 61.8903 177.267C61.3679 177.007 60.9493 176.652 60.6344 176.2C60.3196 175.748 60.1473 175.233 60.1177 174.655H61.4513C61.5032 175.17 61.7365 175.596 62.1514 175.933C62.5701 176.266 63.0702 176.433 63.6518 176.433C64.1186 176.433 64.5335 176.324 64.8965 176.105C65.2633 175.887 65.5504 175.587 65.7578 175.205C65.969 174.82 66.0746 174.384 66.0746 173.899C66.0746 173.403 65.9653 172.96 65.7467 172.571C65.5318 172.178 65.2355 171.869 64.8576 171.643C64.4798 171.417 64.0482 171.302 63.5629 171.299C63.2147 171.295 62.8572 171.349 62.4904 171.46C62.1237 171.567 61.8217 171.706 61.5847 171.876L60.2955 171.721L60.9845 166.12H66.897V167.342H62.1403L61.7402 170.698H61.8069C62.0403 170.513 62.333 170.359 62.6849 170.237C63.0368 170.115 63.4036 170.054 63.7852 170.054C64.4816 170.054 65.1021 170.221 65.6467 170.554C66.195 170.884 66.6247 171.336 66.9359 171.91C67.2508 172.484 67.4082 173.14 67.4082 173.877C67.4082 174.603 67.2452 175.251 66.9192 175.822C66.5969 176.389 66.1524 176.837 65.5856 177.167C65.0188 177.493 64.3742 177.656 63.6518 177.656ZM74.11 177.656C73.2728 177.656 72.5596 177.428 71.9706 176.972C71.3816 176.513 70.9315 175.848 70.6203 174.977C70.3091 174.103 70.1535 173.047 70.1535 171.81C70.1535 170.58 70.3091 169.53 70.6203 168.659C70.9352 167.785 71.3872 167.118 71.9762 166.659C72.5689 166.196 73.2802 165.964 74.11 165.964C74.9398 165.964 75.6492 166.196 76.2383 166.659C76.831 167.118 77.2829 167.785 77.5941 168.659C77.909 169.53 78.0665 170.58 78.0665 171.81C78.0665 173.047 77.9109 174.103 77.5997 174.977C77.2885 175.848 76.8384 176.513 76.2494 176.972C75.6604 177.428 74.9472 177.656 74.11 177.656ZM74.11 176.433C74.9398 176.433 75.5844 176.033 76.0438 175.233C76.5031 174.433 76.7328 173.292 76.7328 171.81C76.7328 170.824 76.6272 169.985 76.4161 169.293C76.2086 168.6 75.9086 168.072 75.5159 167.709C75.1269 167.346 74.6583 167.164 74.11 167.164C73.2876 167.164 72.6449 167.57 72.1818 168.381C71.7187 169.189 71.4872 170.332 71.4872 171.81C71.4872 172.795 71.5909 173.632 71.7984 174.321C72.0058 175.011 72.304 175.535 72.693 175.894C73.0857 176.253 73.558 176.433 74.11 176.433Z" fill="black" fill-opacity="0.85"/>
<line x1="87" y1="171.5" x2="490" y2="171.5" stroke="black" stroke-opacity="0.2" stroke-dasharray="2 2"/>
<path d="M55.7803 205.32V216.7H54.4022V206.764H54.3355L51.5571 208.609V207.209L54.4022 205.32H55.7803ZM63.5476 216.856C62.7104 216.856 61.9972 216.628 61.4082 216.172C60.8192 215.713 60.3691 215.048 60.0579 214.177C59.7467 213.303 59.5911 212.247 59.5911 211.01C59.5911 209.78 59.7467 208.73 60.0579 207.859C60.3728 206.985 60.8248 206.318 61.4138 205.859C62.0065 205.396 62.7178 205.164 63.5476 205.164C64.3774 205.164 65.0868 205.396 65.6759 205.859C66.2686 206.318 66.7205 206.985 67.0317 207.859C67.3466 208.73 67.5041 209.78 67.5041 211.01C67.5041 212.247 67.3485 213.303 67.0373 214.177C66.7261 215.048 66.276 215.713 65.687 216.172C65.098 216.628 64.3848 216.856 63.5476 216.856ZM63.5476 215.633C64.3774 215.633 65.022 215.233 65.4814 214.433C65.9407 213.633 66.1704 212.492 66.1704 211.01C66.1704 210.024 66.0648 209.185 65.8537 208.493C65.6462 207.8 65.3462 207.272 64.9535 206.909C64.5645 206.546 64.0959 206.364 63.5476 206.364C62.7252 206.364 62.0825 206.77 61.6194 207.581C61.1563 208.389 60.9248 209.532 60.9248 211.01C60.9248 211.995 61.0285 212.832 61.236 213.521C61.4434 214.21 61.7416 214.735 62.1306 215.094C62.5233 215.453 62.9956 215.633 63.5476 215.633ZM74.11 216.856C73.2728 216.856 72.5596 216.628 71.9706 216.172C71.3816 215.713 70.9315 215.048 70.6203 214.177C70.3091 213.303 70.1535 212.247 70.1535 211.01C70.1535 209.78 70.3091 208.73 70.6203 207.859C70.9352 206.985 71.3872 206.318 71.9762 205.859C72.5689 205.396 73.2802 205.164 74.11 205.164C74.9398 205.164 75.6492 205.396 76.2383 205.859C76.831 206.318 77.2829 206.985 77.5941 207.859C77.909 208.73 78.0665 209.78 78.0665 211.01C78.0665 212.247 77.9109 213.303 77.5997 214.177C77.2885 215.048 76.8384 215.713 76.2494 216.172C75.6604 216.628 74.9472 216.856 74.11 216.856ZM74.11 215.633C74.9398 215.633 75.5844 215.233 76.0438 214.433C76.5031 213.633 76.7328 212.492 76.7328 211.01C76.7328 210.024 76.6272 209.185 76.4161 208.493C76.2086 207.8 75.9086 207.272 75.5159 206.909C75.1269 206.546 74.6583 206.364 74.11 206.364C73.2876 206.364 72.6449 206.77 72.1818 207.581C71.7187 208.389 71.4872 209.532 71.4872 211.01C71.4872 211.995 71.5909 212.832 71.7984 213.521C72.0058 214.21 72.304 214.735 72.693 215.094C73.0857 215.453 73.558 215.633 74.11 215.633Z" fill="black" fill-opacity="0.85"/>
<line x1="87" y1="210.7" x2="490" y2="210.7" stroke="black" stroke-opacity="0.2" stroke-dasharray="2 2"/>
<path d="M63.6518 256.056C62.9998 256.056 62.4126 255.926 61.8903 255.667C61.3679 255.407 60.9493 255.052 60.6344 254.6C60.3196 254.148 60.1473 253.633 60.1177 253.055H61.4513C61.5032 253.57 61.7365 253.996 62.1514 254.333C62.5701 254.666 63.0702 254.833 63.6518 254.833C64.1186 254.833 64.5335 254.724 64.8965 254.505C65.2633 254.287 65.5504 253.987 65.7578 253.605C65.969 253.22 66.0746 252.785 66.0746 252.299C66.0746 251.803 65.9653 251.36 65.7467 250.971C65.5318 250.578 65.2355 250.269 64.8576 250.043C64.4798 249.817 64.0482 249.702 63.5629 249.699C63.2147 249.695 62.8572 249.749 62.4904 249.86C62.1237 249.967 61.8217 250.106 61.5847 250.277L60.2955 250.121L60.9845 244.52H66.897V245.742H62.1403L61.7402 249.098H61.8069C62.0403 248.913 62.333 248.76 62.6849 248.637C63.0368 248.515 63.4036 248.454 63.7852 248.454C64.4816 248.454 65.1021 248.621 65.6467 248.954C66.195 249.284 66.6247 249.736 66.9359 250.31C67.2508 250.884 67.4082 251.54 67.4082 252.277C67.4082 253.003 67.2452 253.651 66.9192 254.222C66.5969 254.789 66.1524 255.237 65.5856 255.567C65.0188 255.893 64.3742 256.056 63.6518 256.056ZM74.11 256.056C73.2728 256.056 72.5596 255.828 71.9706 255.372C71.3816 254.913 70.9315 254.248 70.6203 253.377C70.3091 252.503 70.1535 251.447 70.1535 250.21C70.1535 248.98 70.3091 247.93 70.6203 247.059C70.9352 246.185 71.3872 245.518 71.9762 245.059C72.5689 244.596 73.2802 244.364 74.11 244.364C74.9398 244.364 75.6492 244.596 76.2383 245.059C76.831 245.518 77.2829 246.185 77.5941 247.059C77.909 247.93 78.0665 248.98 78.0665 250.21C78.0665 251.447 77.9109 252.503 77.5997 253.377C77.2885 254.248 76.8384 254.913 76.2494 255.372C75.6604 255.828 74.9472 256.056 74.11 256.056ZM74.11 254.833C74.9398 254.833 75.5844 254.433 76.0438 253.633C76.5031 252.833 76.7328 251.692 76.7328 250.21C76.7328 249.224 76.6272 248.385 76.4161 247.693C76.2086 247 75.9086 246.472 75.5159 246.109C75.1269 245.746 74.6583 245.564 74.11 245.564C73.2876 245.564 72.6449 245.97 72.1818 246.781C71.7187 247.589 71.4872 248.732 71.4872 250.21C71.4872 251.195 71.5909 252.032 71.7984 252.722C72.0058 253.411 72.304 253.935 72.693 254.294C73.0857 254.653 73.558 254.833 74.11 254.833Z" fill="black" fill-opacity="0.85"/>
<line x1="87" y1="249.9" x2="490" y2="249.9" stroke="black" stroke-opacity="0.2" stroke-dasharray="2 2"/>
<path d="M74.11 296.156C73.2728 296.156 72.5596 295.928 71.9706 295.472C71.3816 295.013 70.9315 294.348 70.6203 293.477C70.3091 292.603 70.1535 291.547 70.1535 290.31C70.1535 289.08 70.3091 288.03 70.6203 287.159C70.9352 286.285 71.3872 285.618 71.9762 285.159C72.5689 284.696 73.2802 284.464 74.11 284.464C74.9398 284.464 75.6492 284.696 76.2383 285.159C76.831 285.618 77.2829 286.285 77.5941 287.159C77.909 288.03 78.0665 289.08 78.0665 290.31C78.0665 291.547 77.9109 292.603 77.5997 293.477C77.2885 294.348 76.8384 295.013 76.2494 295.472C75.6604 295.928 74.9472 296.156 74.11 296.156ZM74.11 294.933C74.9398 294.933 75.5844 294.533 76.0438 293.733C76.5031 292.933 76.7328 291.792 76.7328 290.31C76.7328 289.324 76.6272 288.485 76.4161 287.793C76.2086 287.1 75.9086 286.572 75.5159 286.209C75.1269 285.846 74.6583 285.664 74.11 285.664C73.2876 285.664 72.6449 286.07 72.1818 286.881C71.7187 287.689 71.4872 288.832 71.4872 290.31C71.4872 291.295 71.5909 292.132 71.7984 292.821C72.0058 293.511 72.304 294.035 72.693 294.394C73.0857 294.753 73.558 294.933 74.11 294.933Z" fill="black" fill-opacity="0.85"/>
<line x1="87" y1="290" x2="490" y2="290" stroke="black"/>
<path d="M100.058 314H98.6129L102.792 302.62H104.214L108.393 314H106.948L103.547 304.42H103.458L100.058 314ZM100.591 309.555H106.415V310.777H100.591V309.555ZM111.415 314H109.97L114.149 302.62H115.571L119.75 314H118.305L114.904 304.42H114.816L111.415 314ZM111.948 309.555H117.772V310.777H111.948V309.555ZM122.772 314H121.327L125.506 302.62H126.928L131.107 314H129.662L126.261 304.42H126.173L122.772 314ZM123.305 309.555H129.129V310.777H123.305V309.555Z" fill="black" fill-opacity="0.85"/>
<path d="M157.901 314V302.62H161.88C162.673 302.62 163.327 302.757 163.841 303.031C164.356 303.301 164.74 303.666 164.992 304.126C165.244 304.581 165.37 305.087 165.37 305.643C165.37 306.132 165.283 306.535 165.108 306.854C164.938 307.173 164.712 307.424 164.431 307.61C164.153 307.795 163.851 307.932 163.525 308.021V308.132C163.873 308.154 164.223 308.276 164.575 308.499C164.927 308.721 165.221 309.04 165.459 309.455C165.696 309.869 165.814 310.377 165.814 310.977C165.814 311.548 165.685 312.061 165.425 312.516C165.166 312.972 164.757 313.333 164.197 313.6C163.638 313.867 162.91 314 162.013 314H157.901ZM159.279 312.777H162.013C162.914 312.777 163.553 312.603 163.93 312.255C164.312 311.903 164.503 311.477 164.503 310.977C164.503 310.592 164.405 310.236 164.208 309.91C164.012 309.58 163.732 309.317 163.369 309.121C163.006 308.921 162.576 308.821 162.08 308.821H159.279V312.777ZM159.279 307.621H161.835C162.25 307.621 162.625 307.539 162.958 307.376C163.295 307.213 163.562 306.984 163.758 306.687C163.958 306.391 164.058 306.043 164.058 305.643C164.058 305.142 163.884 304.718 163.536 304.37C163.188 304.018 162.636 303.842 161.88 303.842H159.279V307.621ZM168.861 314V302.62H172.84C173.632 302.62 174.286 302.757 174.801 303.031C175.316 303.301 175.7 303.666 175.951 304.126C176.203 304.581 176.329 305.087 176.329 305.643C176.329 306.132 176.242 306.535 176.068 306.854C175.898 307.173 175.672 307.424 175.39 307.61C175.112 307.795 174.81 307.932 174.484 308.021V308.132C174.833 308.154 175.183 308.276 175.535 308.499C175.887 308.721 176.181 309.04 176.418 309.455C176.655 309.869 176.774 310.377 176.774 310.977C176.774 311.548 176.644 312.061 176.385 312.516C176.126 312.972 175.716 313.333 175.157 313.6C174.597 313.867 173.87 314 172.973 314H168.861ZM170.239 312.777H172.973C173.873 312.777 174.512 312.603 174.89 312.255C175.272 311.903 175.462 311.477 175.462 310.977C175.462 310.592 175.364 310.236 175.168 309.91C174.972 309.58 174.692 309.317 174.329 309.121C173.966 308.921 173.536 308.821 173.04 308.821H170.239V312.777ZM170.239 307.621H172.795C173.21 307.621 173.584 307.539 173.918 307.376C174.255 307.213 174.522 306.984 174.718 306.687C174.918 306.391 175.018 306.043 175.018 305.643C175.018 305.142 174.844 304.718 174.496 304.37C174.147 304.018 173.595 303.842 172.84 303.842H170.239V307.621ZM179.821 314V302.62H183.799C184.592 302.62 185.246 302.757 185.761 303.031C186.276 303.301 186.659 303.666 186.911 304.126C187.163 304.581 187.289 305.087 187.289 305.643C187.289 306.132 187.202 306.535 187.028 306.854C186.857 307.173 186.631 307.424 186.35 307.61C186.072 307.795 185.77 307.932 185.444 308.021V308.132C185.792 308.154 186.142 308.276 186.494 308.499C186.846 308.721 187.141 309.04 187.378 309.455C187.615 309.869 187.734 310.377 187.734 310.977C187.734 311.548 187.604 312.061 187.345 312.516C187.085 312.972 186.676 313.333 186.117 313.6C185.557 313.867 184.829 314 183.933 314H179.821ZM181.199 312.777H183.933C184.833 312.777 185.472 312.603 185.85 312.255C186.231 311.903 186.422 311.477 186.422 310.977C186.422 310.592 186.324 310.236 186.128 309.91C185.931 309.58 185.652 309.317 185.289 309.121C184.926 308.921 184.496 308.821 183.999 308.821H181.199V312.777ZM181.199 307.621H183.755C184.17 307.621 184.544 307.539 184.877 307.376C185.215 307.213 185.481 306.984 185.678 306.687C185.878 306.391 185.978 306.043 185.978 305.643C185.978 305.142 185.804 304.718 185.455 304.37C185.107 304.018 184.555 303.842 183.799 303.842H181.199V307.621Z" fill="black" fill-opacity="0.85"/>
<path d="M222.962 306.176H221.584C221.503 305.78 221.36 305.431 221.156 305.131C220.956 304.831 220.712 304.579 220.423 304.376C220.137 304.168 219.821 304.013 219.472 303.909C219.124 303.805 218.761 303.753 218.383 303.753C217.694 303.753 217.07 303.927 216.511 304.276C215.955 304.624 215.512 305.137 215.183 305.815C214.857 306.493 214.694 307.324 214.694 308.31C214.694 309.295 214.857 310.127 215.183 310.805C215.512 311.483 215.955 311.996 216.511 312.344C217.07 312.692 217.694 312.866 218.383 312.866C218.761 312.866 219.124 312.815 219.472 312.711C219.821 312.607 220.137 312.453 220.423 312.25C220.712 312.042 220.956 311.788 221.156 311.488C221.36 311.185 221.503 310.836 221.584 310.444H222.962C222.858 311.025 222.67 311.546 222.395 312.005C222.121 312.464 221.78 312.855 221.373 313.178C220.965 313.496 220.508 313.739 220 313.906C219.497 314.072 218.958 314.156 218.383 314.156C217.413 314.156 216.55 313.918 215.794 313.444C215.038 312.97 214.444 312.296 214.01 311.422C213.577 310.547 213.36 309.51 213.36 308.31C213.36 307.11 213.577 306.072 214.01 305.198C214.444 304.324 215.038 303.649 215.794 303.175C216.55 302.701 217.413 302.464 218.383 302.464C218.958 302.464 219.497 302.547 220 302.714C220.508 302.881 220.965 303.125 221.373 303.448C221.78 303.766 222.121 304.155 222.395 304.615C222.67 305.07 222.858 305.591 222.962 306.176ZM235.129 306.176H233.751C233.67 305.78 233.527 305.431 233.323 305.131C233.123 304.831 232.879 304.579 232.59 304.376C232.304 304.168 231.988 304.013 231.639 303.909C231.291 303.805 230.928 303.753 230.55 303.753C229.861 303.753 229.237 303.927 228.678 304.276C228.122 304.624 227.679 305.137 227.35 305.815C227.024 306.493 226.861 307.324 226.861 308.31C226.861 309.295 227.024 310.127 227.35 310.805C227.679 311.483 228.122 311.996 228.678 312.344C229.237 312.692 229.861 312.866 230.55 312.866C230.928 312.866 231.291 312.815 231.639 312.711C231.988 312.607 232.304 312.453 232.59 312.25C232.879 312.042 233.123 311.788 233.323 311.488C233.527 311.185 233.67 310.836 233.751 310.444H235.129C235.025 311.025 234.836 311.546 234.562 312.005C234.288 312.464 233.947 312.855 233.54 313.178C233.132 313.496 232.675 313.739 232.167 313.906C231.664 314.072 231.124 314.156 230.55 314.156C229.58 314.156 228.717 313.918 227.961 313.444C227.205 312.97 226.611 312.296 226.177 311.422C225.744 310.547 225.527 309.51 225.527 308.31C225.527 307.11 225.744 306.072 226.177 305.198C226.611 304.324 227.205 303.649 227.961 303.175C228.717 302.701 229.58 302.464 230.55 302.464C231.124 302.464 231.664 302.547 232.167 302.714C232.675 302.881 233.132 303.125 233.54 303.448C233.947 303.766 234.288 304.155 234.562 304.615C234.836 305.07 235.025 305.591 235.129 306.176ZM247.296 306.176H245.918C245.836 305.78 245.694 305.431 245.49 305.131C245.29 304.831 245.046 304.579 244.757 304.376C244.471 304.168 244.155 304.013 243.806 303.909C243.458 303.805 243.095 303.753 242.717 303.753C242.028 303.753 241.404 303.927 240.845 304.276C240.289 304.624 239.846 305.137 239.516 305.815C239.19 306.493 239.027 307.324 239.027 308.31C239.027 309.295 239.19 310.127 239.516 310.805C239.846 311.483 240.289 311.996 240.845 312.344C241.404 312.692 242.028 312.866 242.717 312.866C243.095 312.866 243.458 312.815 243.806 312.711C244.155 312.607 244.471 312.453 244.757 312.25C245.046 312.042 245.29 311.788 245.49 311.488C245.694 311.185 245.836 310.836 245.918 310.444H247.296C247.192 311.025 247.003 311.546 246.729 312.005C246.455 312.464 246.114 312.855 245.707 313.178C245.299 313.496 244.842 313.739 244.334 313.906C243.83 314.072 243.291 314.156 242.717 314.156C241.747 314.156 240.883 313.918 240.128 313.444C239.372 312.97 238.777 312.296 238.344 311.422C237.911 310.547 237.694 309.51 237.694 308.31C237.694 307.11 237.911 306.072 238.344 305.198C238.777 304.324 239.372 303.649 240.128 303.175C240.883 302.701 241.747 302.464 242.717 302.464C243.291 302.464 243.83 302.547 244.334 302.714C244.842 302.881 245.299 303.125 245.707 303.448C246.114 303.766 246.455 304.155 246.729 304.615C247.003 305.07 247.192 305.591 247.296 306.176Z" fill="black" fill-opacity="0.85"/>
<path d="M274.568 314V302.62H281.436V303.842H275.946V307.687H281.08V308.91H275.946V312.777H281.525V314H274.568ZM284.702 314V302.62H291.57V303.842H286.08V307.687H291.215V308.91H286.08V312.777H291.659V314H284.702ZM294.837 314V302.62H301.705V303.842H296.215V307.687H301.349V308.91H296.215V312.777H301.794V314H294.837Z" fill="black" fill-opacity="0.85"/>
<path d="M332.951 314H329.44V302.62H333.107C334.211 302.62 335.156 302.847 335.941 303.303C336.726 303.755 337.328 304.405 337.747 305.254C338.166 306.098 338.375 307.11 338.375 308.288C338.375 309.473 338.164 310.494 337.741 311.349C337.319 312.201 336.704 312.857 335.897 313.317C335.089 313.772 334.107 314 332.951 314ZM330.818 312.777H332.863C333.804 312.777 334.583 312.596 335.202 312.233C335.821 311.87 336.282 311.353 336.586 310.683C336.889 310.012 337.041 309.214 337.041 308.288C337.041 307.369 336.891 306.578 336.591 305.915C336.291 305.248 335.843 304.737 335.246 304.381C334.65 304.022 333.907 303.842 333.018 303.842H330.818V312.777ZM344.981 314H341.469V302.62H345.136C346.24 302.62 347.185 302.847 347.97 303.303C348.756 303.755 349.358 304.405 349.776 305.254C350.195 306.098 350.404 307.11 350.404 308.288C350.404 309.473 350.193 310.494 349.771 311.349C349.349 312.201 348.734 312.857 347.926 313.317C347.118 313.772 346.137 314 344.981 314ZM342.847 312.777H344.892C345.833 312.777 346.613 312.596 347.231 312.233C347.85 311.87 348.311 311.353 348.615 310.683C348.919 310.012 349.071 309.214 349.071 308.288C349.071 307.369 348.921 306.578 348.621 305.915C348.321 305.248 347.872 304.737 347.276 304.381C346.679 304.022 345.937 303.842 345.048 303.842H342.847V312.777ZM357.01 314H353.498V302.62H357.166C358.27 302.62 359.214 302.847 360 303.303C360.785 303.755 361.387 304.405 361.806 305.254C362.224 306.098 362.434 307.11 362.434 308.288C362.434 309.473 362.223 310.494 361.8 311.349C361.378 312.201 360.763 312.857 359.955 313.317C359.148 313.772 358.166 314 357.01 314ZM354.876 312.777H356.921C357.862 312.777 358.642 312.596 359.261 312.233C359.879 311.87 360.341 311.353 360.644 310.683C360.948 310.012 361.1 309.214 361.1 308.288C361.1 307.369 360.95 306.578 360.65 305.915C360.35 305.248 359.902 304.737 359.305 304.381C358.709 304.022 357.966 303.842 357.077 303.842H354.876V312.777Z" fill="black" fill-opacity="0.85"/>
<path d="M390.248 314V302.62H397.072V303.842H391.626V307.687H396.561V308.91H391.626V314H390.248ZM400.215 314V302.62H407.039V303.842H401.593V307.687H406.527V308.91H401.593V314H400.215ZM410.181 314V302.62H417.005V303.842H411.559V307.687H416.494V308.91H411.559V314H410.181Z" fill="black" fill-opacity="0.85"/>
<path d="M452.075 306.176C451.952 305.802 451.791 305.467 451.591 305.17C451.395 304.87 451.159 304.615 450.885 304.403C450.615 304.192 450.307 304.031 449.963 303.92C449.618 303.809 449.241 303.753 448.829 303.753C448.155 303.753 447.542 303.927 446.99 304.276C446.438 304.624 445.999 305.137 445.673 305.815C445.347 306.493 445.184 307.324 445.184 308.31C445.184 309.295 445.349 310.127 445.679 310.805C446.008 311.483 446.455 311.996 447.018 312.344C447.581 312.692 448.214 312.866 448.918 312.866C449.57 312.866 450.144 312.727 450.641 312.45C451.141 312.168 451.53 311.772 451.808 311.26C452.089 310.746 452.23 310.14 452.23 309.443L452.652 309.532H449.229V308.31H453.564V309.532C453.564 310.47 453.364 311.285 452.964 311.977C452.567 312.67 452.019 313.207 451.319 313.589C450.622 313.967 449.822 314.156 448.918 314.156C447.911 314.156 447.025 313.918 446.262 313.444C445.503 312.97 444.91 312.296 444.484 311.422C444.062 310.547 443.85 309.51 443.85 308.31C443.85 307.41 443.971 306.6 444.212 305.881C444.456 305.159 444.801 304.544 445.245 304.037C445.69 303.529 446.216 303.14 446.823 302.87C447.431 302.599 448.1 302.464 448.829 302.464C449.429 302.464 449.989 302.555 450.507 302.736C451.03 302.914 451.495 303.168 451.902 303.498C452.313 303.824 452.656 304.214 452.93 304.67C453.204 305.122 453.393 305.624 453.497 306.176H452.075ZM464.486 306.176C464.364 305.802 464.203 305.467 464.002 305.17C463.806 304.87 463.571 304.615 463.297 304.403C463.026 304.192 462.719 304.031 462.374 303.92C462.03 303.809 461.652 303.753 461.241 303.753C460.567 303.753 459.953 303.927 459.401 304.276C458.849 304.624 458.41 305.137 458.084 305.815C457.758 306.493 457.595 307.324 457.595 308.31C457.595 309.295 457.76 310.127 458.09 310.805C458.42 311.483 458.866 311.996 459.429 312.344C459.992 312.692 460.626 312.866 461.33 312.866C461.982 312.866 462.556 312.727 463.052 312.45C463.552 312.168 463.941 311.772 464.219 311.26C464.501 310.746 464.642 310.14 464.642 309.443L465.064 309.532H461.641V308.31H465.975V309.532C465.975 310.47 465.775 311.285 465.375 311.977C464.979 312.67 464.43 313.207 463.73 313.589C463.034 313.967 462.234 314.156 461.33 314.156C460.322 314.156 459.437 313.918 458.674 313.444C457.914 312.97 457.321 312.296 456.895 311.422C456.473 310.547 456.262 309.51 456.262 308.31C456.262 307.41 456.382 306.6 456.623 305.881C456.868 305.159 457.212 304.544 457.657 304.037C458.101 303.529 458.627 303.14 459.235 302.87C459.842 302.599 460.511 302.464 461.241 302.464C461.841 302.464 462.4 302.555 462.919 302.736C463.441 302.914 463.906 303.168 464.314 303.498C464.725 303.824 465.068 304.214 465.342 304.67C465.616 305.122 465.805 305.624 465.908 306.176H464.486ZM476.897 306.176C476.775 305.802 476.614 305.467 476.414 305.17C476.218 304.87 475.982 304.615 475.708 304.403C475.438 304.192 475.13 304.031 474.786 303.92C474.441 303.809 474.063 303.753 473.652 303.753C472.978 303.753 472.365 303.927 471.813 304.276C471.261 304.624 470.822 305.137 470.496 305.815C470.17 306.493 470.007 307.324 470.007 308.31C470.007 309.295 470.172 310.127 470.501 310.805C470.831 311.483 471.278 311.996 471.841 312.344C472.404 312.692 473.037 312.866 473.741 312.866C474.393 312.866 474.967 312.727 475.464 312.45C475.964 312.168 476.353 311.772 476.631 311.26C476.912 310.746 477.053 310.14 477.053 309.443L477.475 309.532H474.052V308.31H478.387V309.532C478.387 310.47 478.187 311.285 477.786 311.977C477.39 312.67 476.842 313.207 476.142 313.589C475.445 313.967 474.645 314.156 473.741 314.156C472.733 314.156 471.848 313.918 471.085 313.444C470.326 312.97 469.733 312.296 469.307 311.422C468.884 310.547 468.673 309.51 468.673 308.31C468.673 307.41 468.794 306.6 469.034 305.881C469.279 305.159 469.624 304.544 470.068 304.037C470.513 303.529 471.039 303.14 471.646 302.87C472.254 302.599 472.922 302.464 473.652 302.464C474.252 302.464 474.812 302.555 475.33 302.736C475.853 302.914 476.318 303.168 476.725 303.498C477.136 303.824 477.479 304.214 477.753 304.67C478.027 305.122 478.216 305.624 478.32 306.176H476.897Z" fill="black" fill-opacity="0.85"/>
<rect x="105.786" y="154.667" width="20" height="18" fill="#FB466C"/>
<rect x="105.786" y="173.667" width="20" height="27" fill="#ED589D"/>
<rect x="105.786" y="201.667" width="20" height="39" fill="#3AACFF"/>
<rect x="105.786" y="241.667" width="20" height="53.3333" fill="#6C63F0"/>
<rect x="163.357" y="194.667" width="20" height="7" fill="#FB466C"/>
<rect x="163.357" y="202.667" width="20" height="21" fill="#ED589D"/>
<rect x="163.357" y="224.667" width="20" height="11" fill="#3AACFF"/>
<rect x="163.357" y="236.667" width="20" height="58.3333" fill="#6C63F0"/>
<rect x="220.928" y="214.667" width="20" height="14" fill="#FB466C"/>
<rect x="220.928" y="229.667" width="20" height="7" fill="#ED589D"/>
<rect x="220.928" y="237.667" width="20" height="28.1667" fill="#3AACFF"/>
<rect x="220.928" y="266.833" width="20" height="28.1667" fill="#6C63F0"/>
<rect x="278.5" y="234.667" width="20" height="6" fill="#FB466C"/>
<rect x="278.5" y="241.667" width="20" height="17" fill="#ED589D"/>
<rect x="278.5" y="259.667" width="20" height="5" fill="#3AACFF"/>
<rect x="278.5" y="265.667" width="20" height="29.3333" fill="#6C63F0"/>
<rect x="336.071" y="174.667" width="20" height="19" fill="#FB466C"/>
<rect x="336.071" y="194.667" width="20" height="8" fill="#ED589D"/>
<rect x="336.071" y="203.667" width="20" height="9" fill="#3AACFF"/>
<rect x="336.071" y="213.667" width="20" height="81.3333" fill="#6C63F0"/>
<rect x="393.643" y="114.667" width="20" height="32" fill="#FB466C"/>
<rect x="393.643" y="147.667" width="20" height="14" fill="#ED589D"/>
<rect x="393.643" y="162.667" width="20" height="77" fill="#3AACFF"/>
<rect x="393.643" y="240.667" width="20" height="54.3333" fill="#6C63F0"/>
<rect x="451.214" y="124.667" width="20" height="8" fill="#FB466C"/>
<rect x="451.214" y="133.667" width="20" height="34" fill="#ED589D"/>
<rect x="451.214" y="168.667" width="20" height="11" fill="#3AACFF"/>
<rect x="451.214" y="180.667" width="20" height="114.333" fill="#6C63F0"/>
</g>
<defs>
<filter id="filter0_d_114_13241" x="0" y="0" width="560" height="380" filterUnits="userSpaceOnUse" color-interpolation-filters="sRGB">
<feFlood flood-opacity="0" result="BackgroundImageFix"/>
<feColorMatrix in="SourceAlpha" type="matrix" values="0 0 0 0 0 0 0 0 0 0 0 0 0 0 0 0 0 0 127 0" result="hardAlpha"/>
<feOffset/>
<feGaussianBlur stdDeviation="15"/>
<feComposite in2="hardAlpha" operator="out"/>
<feColorMatrix type="matrix" values="0 0 0 0 0 0 0 0 0 0 0 0 0 0 0 0 0 0 0.04 0"/>
<feBlend mode="normal" in2="BackgroundImageFix" result="effect1_dropShadow_114_13241"/>
<feBlend mode="normal" in="SourceGraphic" in2="effect1_dropShadow_114_13241" result="shape"/>
</filter>
</defs>
</svg>
