<svg width="569" height="421" viewBox="0 0 569 421" fill="none" xmlns="http://www.w3.org/2000/svg">
<ellipse cx="319.958" cy="117.849" rx="99.0648" ry="99.0648" fill="#FFAE03"/>
<circle cx="319" cy="116" r="114.5" stroke="#F85C3A" stroke-width="3"/>
<path d="M240.796 347.437L225.906 359.787C225.906 359.787 257.46 415.966 262.046 407.632C264.266 403.601 259.122 375.639 259.122 375.639" fill="white"/>
<path d="M260.736 409.279C253.019 409.279 228.031 365.209 225.219 360.186C225.129 360.024 225.098 359.835 225.13 359.652C225.162 359.468 225.255 359.301 225.395 359.179L240.285 346.749C240.366 346.682 240.459 346.632 240.56 346.6C240.66 346.569 240.765 346.558 240.87 346.568C240.975 346.578 241.076 346.608 241.169 346.657C241.262 346.706 241.344 346.773 241.412 346.853C241.479 346.934 241.529 347.028 241.56 347.128C241.592 347.229 241.603 347.334 241.593 347.439C241.583 347.544 241.553 347.645 241.504 347.738C241.455 347.831 241.389 347.914 241.308 347.981L226.929 359.978C237.473 378.678 255.687 407.68 260.736 407.68C260.868 407.674 260.995 407.63 261.103 407.553C261.21 407.477 261.294 407.371 261.343 407.248C262.94 404.48 260.384 386.932 258.339 375.815C258.302 375.607 258.348 375.393 258.468 375.219C258.587 375.045 258.771 374.926 258.978 374.887C259.187 374.854 259.401 374.901 259.576 375.02C259.751 375.139 259.875 375.32 259.921 375.527C260.448 378.422 265.033 403.857 262.749 408.016C262.567 408.396 262.282 408.716 261.925 408.94C261.569 409.164 261.156 409.281 260.736 409.279V409.279Z" fill="#272A33"/>
<path d="M406.796 267.535L381.552 257.026L415.391 175.604C418.587 167.766 432.854 155.464 437.759 157.496C442.664 159.528 443.926 178.291 440.667 186.13L406.796 267.535Z" fill="white"/>
<path d="M406.796 268.335C406.696 268.358 406.592 268.358 406.492 268.335L381.249 257.825C381.055 257.743 380.9 257.588 380.818 257.394C380.739 257.193 380.739 256.97 380.818 256.77L414.657 175.364C417.852 167.798 432.231 154.425 438.031 156.824C443.83 159.224 444.517 178.931 441.37 186.497L407.547 267.903C407.477 268.04 407.368 268.153 407.235 268.23C407.102 268.306 406.949 268.343 406.796 268.335ZM382.591 256.594L406.445 266.495L439.996 185.826C443.191 178.003 441.594 159.959 437.52 158.248C433.445 156.536 419.482 168.086 416.222 175.844L382.591 256.594Z" fill="#272A33"/>
<path d="M403.788 266.245L385.231 258.515L383.55 262.561L402.107 270.292L403.788 266.245Z" fill="white"/>
<path d="M402.099 271.118C401.993 271.141 401.884 271.141 401.779 271.118L383.23 263.392C383.132 263.352 383.043 263.293 382.968 263.218C382.893 263.142 382.834 263.053 382.793 262.955C382.753 262.857 382.733 262.751 382.734 262.645C382.735 262.539 382.757 262.434 382.799 262.336L384.476 258.305C384.515 258.208 384.573 258.119 384.647 258.045C384.721 257.97 384.81 257.912 384.908 257.873C385.102 257.793 385.32 257.793 385.515 257.873L404.08 265.6C404.178 265.64 404.267 265.699 404.342 265.774C404.417 265.85 404.476 265.939 404.517 266.037C404.557 266.135 404.577 266.241 404.576 266.347C404.575 266.453 404.553 266.558 404.511 266.656L402.834 270.655C402.751 270.849 402.597 271.004 402.402 271.087C402.305 271.12 402.201 271.131 402.099 271.118ZM384.524 262.161L401.619 269.279L402.674 266.703L385.675 259.585L384.524 262.161Z" fill="#272A33"/>
<path d="M436.219 196.814L410.965 186.294L388.712 239.846L413.965 250.366L436.219 196.814Z" fill="#D1D3D4"/>
<path d="M413.938 251.187C413.832 251.209 413.723 251.209 413.618 251.187L388.375 240.661C388.277 240.623 388.188 240.564 388.114 240.49C388.04 240.416 387.982 240.327 387.943 240.229C387.863 240.035 387.863 239.816 387.943 239.622L410.199 186.066C410.281 185.871 410.436 185.716 410.63 185.634C410.83 185.554 411.053 185.554 411.253 185.634L436.497 196.159C436.691 196.241 436.845 196.396 436.926 196.59C437.007 196.785 437.008 197.004 436.928 197.199L414.672 250.755C414.602 250.888 414.496 250.999 414.366 251.075C414.236 251.151 414.088 251.19 413.938 251.187V251.187ZM389.733 239.43L413.506 249.347L435.203 197.263L411.429 187.361L389.733 239.43Z" fill="#272A33"/>
<path d="M371.151 254.034L382.814 253.97L387.847 241.877L373.995 247.188L371.151 254.034Z" fill="white"/>
<path d="M371.152 254.834C371.02 254.834 370.89 254.802 370.773 254.741C370.656 254.68 370.556 254.591 370.481 254.482C370.418 254.367 370.385 254.238 370.385 254.106C370.385 253.975 370.418 253.846 370.481 253.73L373.325 246.884C373.363 246.782 373.423 246.689 373.5 246.612C373.577 246.534 373.67 246.475 373.772 246.436L387.624 241.125C387.771 241.071 387.93 241.06 388.083 241.094C388.236 241.128 388.376 241.205 388.487 241.317C388.596 241.429 388.67 241.571 388.699 241.725C388.727 241.878 388.709 242.037 388.646 242.181L383.614 254.274C383.558 254.42 383.46 254.546 383.332 254.635C383.203 254.723 383.051 254.771 382.895 254.77H371.216L371.152 254.834ZM374.603 247.812L372.35 253.234H382.288L386.394 243.349L374.603 247.812Z" fill="#272A33"/>
<path d="M416.238 272.83L408.074 264.496L413.091 252.403L419.098 265.984L416.238 272.83Z" fill="white"/>
<path d="M416.254 273.63C416.038 273.629 415.831 273.543 415.679 273.39L407.499 265.056C407.39 264.944 407.316 264.803 407.284 264.65C407.253 264.497 407.267 264.338 407.323 264.192L412.356 252.083C412.42 251.941 412.523 251.82 412.653 251.735C412.784 251.65 412.935 251.604 413.091 251.603C413.245 251.601 413.396 251.644 413.527 251.726C413.657 251.808 413.761 251.927 413.826 252.067L419.817 265.664C419.861 265.762 419.883 265.868 419.883 265.976C419.883 266.083 419.861 266.189 419.817 266.288L416.973 273.134C416.921 273.256 416.84 273.364 416.737 273.447C416.634 273.531 416.512 273.588 416.382 273.614L416.254 273.63ZM409.001 264.256L415.967 271.342L418.219 265.92L413.123 254.354L409.001 264.256Z" fill="#272A33"/>
<path d="M158.116 86.312L310.823 90.871L421.67 196.127L401.46 244.74L137.906 134.925L158.116 86.312Z" fill="white"/>
<path d="M401.459 245.54C401.359 245.563 401.256 245.563 401.156 245.54L137.538 135.725C137.44 135.686 137.352 135.628 137.277 135.554C137.203 135.479 137.145 135.391 137.107 135.293C137.027 135.098 137.027 134.88 137.107 134.685L157.317 86.0721C157.383 85.9271 157.489 85.8037 157.622 85.716C157.754 85.6283 157.909 85.5799 158.068 85.5762L310.775 90.1351C310.97 90.1361 311.158 90.2103 311.302 90.3431L422.229 195.471C422.344 195.586 422.423 195.733 422.454 195.892C422.485 196.052 422.468 196.217 422.405 196.367L402.21 245.06C402.128 245.255 401.973 245.41 401.779 245.492C401.677 245.531 401.568 245.547 401.459 245.54V245.54ZM138.944 134.493L401.044 243.701L420.727 196.319L310.487 91.6548L158.707 87.1278L138.944 134.493Z" fill="#272A33"/>
<path d="M335.472 95.575L290.127 76.686C275.446 70.5706 258.594 77.5286 252.486 92.2271L228.845 149.118C222.738 163.816 229.687 180.689 244.367 186.805L289.712 205.694C304.393 211.809 321.245 204.851 327.353 190.152L350.994 133.262C357.102 118.563 350.152 101.69 335.472 95.575Z" fill="#D1D3D4"/>
<path d="M300.758 208.748C296.852 208.744 292.986 207.966 289.382 206.461L244.024 187.569C236.778 184.552 231.025 178.778 228.029 171.517C225.034 164.255 225.04 156.099 228.047 148.842L251.693 91.9268C254.706 84.6722 260.473 78.9123 267.726 75.9128C274.979 72.9133 283.124 72.9196 290.373 75.9304L335.731 94.8381C342.977 97.8552 348.729 103.629 351.725 110.891C354.721 118.153 354.715 126.308 351.708 133.565L328.062 190.465C325.808 195.859 322.016 200.467 317.159 203.714C312.303 206.96 306.597 208.7 300.758 208.716V208.748ZM279.045 75.2745C275.383 75.2832 271.758 76.0058 268.373 77.402C264.969 78.7982 261.875 80.8558 259.27 83.4559C256.665 86.056 254.6 89.1471 253.195 92.5506L229.549 149.45C226.699 156.31 226.688 164.023 229.516 170.892C232.344 177.761 237.781 183.225 244.631 186.082L290.005 205.069C296.865 207.907 304.57 207.899 311.426 205.05C318.281 202.2 323.725 196.741 326.56 189.873L350.206 132.974C353.063 126.111 353.083 118.393 350.261 111.516C347.439 104.638 342.006 99.1634 335.156 96.2938L289.813 77.45C286.405 76.0137 282.743 75.274 279.045 75.2745Z" fill="#272A33"/>
<path d="M142.267 157.32L117.008 146.794L150.815 65.3887C154.01 57.5505 168.278 45.2492 173.183 47.2808C178.088 49.3123 179.366 68.0761 176.106 75.9143L142.267 157.32Z" fill="white"/>
<path d="M142.267 158.12C142.168 158.144 142.064 158.144 141.964 158.12L116.704 147.482C116.509 147.398 116.354 147.24 116.274 147.042C116.193 146.845 116.193 146.624 116.273 146.427L150.112 65.0208C151.71 61.2297 155.928 56.0949 160.896 51.9518C163.485 49.8083 169.875 44.9774 173.486 46.481C177.097 47.9847 178.183 55.9349 178.487 59.2781C179.062 65.6767 178.487 72.3632 176.889 76.1543L143.05 157.56C142.996 157.724 142.891 157.867 142.75 157.968C142.609 158.069 142.44 158.122 142.267 158.12V158.12ZM118.062 146.363L141.836 156.28L175.387 75.6105C176.873 72.0273 177.48 65.7087 176.985 59.4861C176.49 53.2635 174.844 48.8165 172.959 48.0167C171.074 47.2169 166.776 49.2804 161.999 53.2475C157.222 57.2146 153.148 62.1255 151.662 65.7087L118.062 146.363Z" fill="#272A33"/>
<path d="M139.229 156.048L120.672 148.318L118.991 152.364L137.548 160.094L139.229 156.048Z" fill="white"/>
<path d="M137.554 160.903C137.454 160.927 137.35 160.927 137.25 160.903L118.685 153.177C118.49 153.092 118.335 152.934 118.255 152.737C118.174 152.54 118.174 152.319 118.254 152.121L119.852 148.074C119.934 147.88 120.089 147.725 120.283 147.642C120.483 147.563 120.706 147.563 120.906 147.642L139.455 155.384C139.553 155.423 139.641 155.481 139.716 155.556C139.79 155.63 139.848 155.719 139.887 155.816C139.967 156.011 139.967 156.23 139.887 156.424L138.209 160.471C138.127 160.666 137.972 160.821 137.778 160.903C137.704 160.916 137.628 160.916 137.554 160.903V160.903ZM119.979 151.929L137.059 159.064L138.129 156.488L121.034 149.37L119.979 151.929Z" fill="#272A33"/>
<path d="M171.675 86.6065L146.421 76.0867L124.167 129.639L149.421 140.159L171.675 86.6065Z" fill="#D1D3D4"/>
<path d="M149.393 140.972C149.293 140.994 149.189 140.994 149.09 140.972L123.83 130.446C123.733 130.408 123.644 130.349 123.57 130.275C123.496 130.201 123.437 130.112 123.399 130.014C123.319 129.82 123.319 129.601 123.399 129.406L145.671 75.8504C145.709 75.7527 145.767 75.664 145.841 75.5897C145.916 75.5154 146.004 75.4571 146.102 75.4185C146.296 75.3385 146.515 75.3385 146.709 75.4185L171.952 85.9441C172.05 85.9827 172.139 86.0405 172.214 86.1141C172.288 86.1877 172.348 86.2756 172.388 86.3726C172.428 86.4696 172.449 86.5737 172.448 86.6787C172.447 86.7837 172.425 86.8875 172.384 86.9839L150.128 140.476C150.068 140.622 149.966 140.747 149.836 140.835C149.705 140.923 149.551 140.971 149.393 140.972ZM125.252 129.214L149.026 139.116L170.674 87.0479L146.837 77.0981L125.252 129.214Z" fill="#272A33"/>
<path d="M106.607 143.819L118.286 143.755L123.303 131.662L109.451 136.973L106.607 143.819Z" fill="white"/>
<path d="M106.607 144.619C106.476 144.618 106.348 144.585 106.232 144.523C106.117 144.461 106.019 144.372 105.946 144.263C105.874 144.154 105.829 144.029 105.816 143.898C105.803 143.768 105.822 143.636 105.872 143.515L108.716 136.669C108.758 136.566 108.821 136.473 108.901 136.396C108.98 136.319 109.075 136.259 109.179 136.221L123.015 130.91C123.162 130.855 123.322 130.845 123.475 130.879C123.628 130.913 123.768 130.99 123.878 131.102C123.988 131.213 124.062 131.355 124.09 131.509C124.119 131.663 124.1 131.822 124.038 131.966L119.021 144.059C118.961 144.205 118.859 144.33 118.729 144.418C118.598 144.507 118.444 144.554 118.286 144.555H106.623L106.607 144.619ZM110.058 137.596L107.805 143.019H117.743L121.849 133.085L110.058 137.596Z" fill="#272A33"/>
<path d="M151.71 162.615L143.53 154.281L148.562 142.188L154.554 155.768L151.71 162.615Z" fill="white"/>
<path d="M151.71 163.479C151.495 163.472 151.29 163.386 151.134 163.239L142.954 154.905C142.844 154.793 142.771 154.651 142.742 154.497C142.714 154.343 142.732 154.184 142.794 154.041L147.827 141.932C147.885 141.789 147.984 141.666 148.113 141.581C148.241 141.495 148.392 141.45 148.546 141.452V141.452C148.698 141.451 148.847 141.494 148.974 141.577C149.102 141.659 149.203 141.777 149.265 141.916L155.288 155.481C155.369 155.686 155.369 155.915 155.288 156.12L152.412 162.919C152.362 163.042 152.281 163.15 152.178 163.234C152.074 163.318 151.952 163.374 151.821 163.399L151.71 163.479ZM144.424 154.089L151.39 161.191L153.643 155.768L148.578 144.283L144.424 154.089Z" fill="#272A33"/>
<path d="M242.314 98.7892L174.924 95.7179C174.819 95.7138 174.716 95.689 174.621 95.6449C174.525 95.6009 174.44 95.5384 174.368 95.4612C174.297 95.3839 174.242 95.2934 174.206 95.1947C174.169 95.096 174.153 94.9911 174.157 94.8861C174.173 94.6739 174.27 94.4761 174.428 94.3333C174.585 94.1905 174.791 94.1135 175.004 94.1182L242.378 97.1896C242.59 97.1896 242.793 97.2738 242.943 97.4238C243.093 97.5738 243.177 97.7772 243.177 97.9894C243.177 98.2015 243.093 98.4049 242.943 98.5549C242.793 98.7049 242.59 98.7892 242.378 98.7892H242.314Z" fill="#D1D3D4"/>
<path d="M412.723 198.223C412.521 198.218 412.327 198.139 412.18 197.999L354.855 144.699C354.701 144.553 354.61 144.351 354.604 144.138C354.598 143.925 354.677 143.718 354.823 143.563C354.969 143.408 355.171 143.318 355.384 143.312C355.597 143.306 355.803 143.385 355.958 143.531L413.267 196.831C413.341 196.906 413.401 196.994 413.441 197.091C413.482 197.189 413.503 197.293 413.503 197.399C413.503 197.505 413.482 197.609 413.441 197.707C413.401 197.804 413.341 197.893 413.267 197.967C413.124 198.117 412.93 198.208 412.723 198.223V198.223Z" fill="#D1D3D4"/>
<path d="M343.895 132.846C343.895 132.846 432.279 205.501 395.532 210.876C364.84 215.355 336.961 198.959 336.961 198.959L345.732 179.683C345.732 179.683 373.995 192.816 373.021 187.057C372.046 181.299 333.686 158.264 333.686 158.264L343.895 132.846Z" fill="#F85C3A"/>
<path d="M265.177 103.508C265.177 103.508 176.234 93.7025 173.917 107.283C171.601 120.864 209.929 150.906 210.872 149.082C211.814 147.258 232.137 135.277 232.137 135.277L214.387 121.024L256.917 130.622L265.177 103.508Z" fill="#F85C3A"/>
<path d="M341.275 84.0245C343.831 79.2256 342.042 73.211 339.15 68.604C335.452 62.8959 330.239 58.3321 324.096 55.4247C317.952 52.5173 311.121 51.3811 304.368 52.1437C298.185 52.9435 291.827 55.7109 288.631 61.0857C291.997 60.4117 295.45 60.2875 298.856 60.7178C295.106 62.3598 291.745 64.7759 288.992 67.8081C286.239 70.8403 284.156 74.4202 282.88 78.3138C282.536 79.097 282.491 79.9789 282.752 80.7933C283.391 82.169 285.34 82.2169 286.794 81.801C288.248 81.3851 289.877 80.7453 291.203 81.4811C286.865 83.2482 283.386 86.6398 281.506 90.935C280.581 92.8195 280.317 94.9604 280.755 97.0136C281.201 98.4505 282.03 99.7388 283.151 100.741C285.95 103.034 289.225 104.674 292.737 105.54C298.968 107.555 305.519 109.363 311.909 108.531C319.738 107.539 326.193 102.868 331.912 97.7335C334.549 95.366 337.105 95.302 339.901 93.5424C340.715 93.0087 341.402 92.3021 341.913 91.4727C342.424 90.6433 342.746 89.7115 342.857 88.7435C342.497 87.1191 341.967 85.5373 341.275 84.0245V84.0245Z" fill="white"/>
<path d="M308.618 109.571C303.106 109.349 297.662 108.269 292.482 106.372C288.822 105.456 285.415 103.728 282.512 101.317C281.293 100.21 280.393 98.7958 279.908 97.2216C279.399 94.9897 279.675 92.6503 280.691 90.5991C282.179 87.2012 284.635 84.3187 287.753 82.3129H287.481L286.938 82.4729C285.164 82.9688 282.8 82.9048 281.953 81.0332C281.591 80.0403 281.626 78.9462 282.049 77.9779C284.399 70.8549 289.338 64.8768 295.885 61.2297C293.505 61.1597 291.125 61.3636 288.791 61.8375C288.638 61.8699 288.48 61.8567 288.334 61.7997C288.189 61.7426 288.063 61.6442 287.973 61.5166C287.883 61.389 287.833 61.2377 287.827 61.0816C287.822 60.9254 287.863 60.7711 287.944 60.6378C290.9 55.6629 296.859 52.2557 304.273 51.3119C311.178 50.4991 318.173 51.644 324.461 54.6163C330.748 57.5886 336.076 62.2688 339.837 68.1241C341.547 70.8755 345.173 77.8499 342.138 84.0405C342.817 85.5398 343.321 87.1125 343.64 88.7275C343.537 89.8304 343.186 90.8956 342.614 91.8432C342.041 92.7908 341.261 93.596 340.332 94.1983C339.231 94.8742 338.064 95.4369 336.849 95.8779C335.256 96.3954 333.779 97.2215 332.504 98.3093C327.439 102.868 320.537 108.243 312.053 109.315C310.915 109.472 309.768 109.557 308.618 109.571ZM289.814 80.2974C290.432 80.284 291.044 80.4329 291.587 80.7293C291.72 80.8021 291.83 80.9114 291.904 81.0446C291.978 81.1778 292.012 81.3292 292.002 81.4811C291.994 81.6313 291.943 81.7759 291.856 81.8979C291.768 82.0198 291.647 82.1139 291.507 82.169C287.358 83.8543 284.032 87.0982 282.241 91.2069C281.376 92.9212 281.123 94.8795 281.522 96.7577C281.928 98.0541 282.679 99.2154 283.694 100.117C286.413 102.357 289.594 103.963 293.009 104.82C299.032 106.755 305.471 108.595 311.894 107.779C319.882 106.755 326.273 101.845 331.465 97.1736C332.869 95.9569 334.497 95.0276 336.258 94.4382C337.374 94.0135 338.445 93.4776 339.454 92.8386C340.171 92.3636 340.775 91.7359 341.222 91.0004C341.67 90.265 341.95 89.4397 342.042 88.5835C341.667 87.1384 341.175 85.7261 340.572 84.3605C340.505 84.2437 340.469 84.1113 340.469 83.9766C340.469 83.8418 340.505 83.7094 340.572 83.5926C343.496 78.0739 340.077 71.5154 338.479 68.9559C334.837 63.4083 329.734 58.9768 323.734 56.151C317.734 53.3252 311.071 52.2152 304.48 52.9435C298.345 53.7274 293.297 56.2548 290.373 59.982C293.226 59.6059 296.115 59.6059 298.968 59.982C299.142 60.0051 299.304 60.085 299.428 60.2093C299.552 60.3336 299.632 60.4955 299.655 60.6698C299.68 60.8442 299.646 61.0219 299.559 61.1752C299.473 61.3285 299.338 61.4489 299.176 61.5176C295.516 63.0954 292.233 65.4326 289.542 68.3748C286.851 71.317 284.815 74.7973 283.567 78.5858C283.292 79.1762 283.235 79.8451 283.407 80.4733C283.806 81.3531 285.292 81.3851 286.506 81.0492L287.018 80.8893C287.915 80.5555 288.858 80.3561 289.814 80.2974V80.2974Z" fill="#272A33"/>
<path d="M288.551 223.833C288.551 223.833 317.437 287.819 312.516 300.328C307.596 312.837 259.09 375.671 259.09 375.671L233.351 353.836C233.351 353.836 278.709 293.993 276.84 289.85C274.971 285.707 252.523 242.357 252.523 242.357L130.508 375.575L118.206 343.582L217.103 201.486L288.551 223.833Z" fill="#272A33"/>
<path d="M259.122 376.471C258.937 376.469 258.758 376.407 258.611 376.295L232.84 354.428C232.687 354.295 232.59 354.108 232.569 353.906C232.549 353.704 232.605 353.502 232.728 353.34C249.807 330.785 276.68 293.673 276.089 290.09C274.492 286.395 255.735 250.275 252.348 243.701L131.1 376.071C131.009 376.173 130.893 376.251 130.764 376.296C130.635 376.341 130.496 376.352 130.361 376.328C130.227 376.304 130.1 376.245 129.995 376.158C129.889 376.071 129.807 375.959 129.757 375.831L117.455 343.838C117.408 343.717 117.392 343.587 117.409 343.458C117.425 343.329 117.474 343.207 117.551 343.102L216.448 200.99C216.545 200.851 216.685 200.746 216.845 200.692C217.006 200.637 217.18 200.635 217.342 200.686L288.791 223.081C288.9 223.113 289 223.168 289.086 223.243C289.171 223.317 289.24 223.41 289.286 223.513C290.468 226.137 318.252 287.931 313.251 300.632C308.251 313.333 261.742 373.591 259.761 376.231C259.697 376.317 259.616 376.389 259.522 376.442C259.429 376.494 259.325 376.526 259.218 376.535L259.122 376.471ZM234.454 353.692L259.01 374.487C264.219 367.737 307.276 311.605 311.734 300.008C316.191 288.411 290.117 229.4 287.912 224.457L217.358 202.366L119.037 343.63L130.732 374.023L251.932 241.861C252.017 241.761 252.126 241.684 252.25 241.639C252.373 241.594 252.506 241.583 252.635 241.605C252.76 241.621 252.88 241.666 252.983 241.739C253.086 241.812 253.17 241.908 253.226 242.021C254.153 243.797 275.706 285.419 277.559 289.546C279.412 293.673 245.653 338.895 234.454 353.692Z" fill="#272A33"/>
<path d="M288.551 223.833L217.103 201.438L284.126 113.89C284.126 113.89 317.501 129.886 321.559 136.413C325.617 142.939 288.551 223.833 288.551 223.833Z" fill="white"/>
<path d="M288.551 224.633C288.472 224.648 288.391 224.648 288.312 224.633L216.863 202.238C216.739 202.2 216.626 202.131 216.534 202.039C216.442 201.947 216.374 201.834 216.336 201.71C216.297 201.589 216.289 201.46 216.311 201.334C216.333 201.209 216.386 201.091 216.464 200.99L283.423 113.346C283.536 113.199 283.696 113.095 283.876 113.052C284.056 113.008 284.245 113.027 284.413 113.106C285.787 113.762 317.965 129.406 322.167 135.981C326.368 142.555 293.025 215.835 289.222 224.153C289.163 224.286 289.07 224.4 288.952 224.484C288.834 224.569 288.696 224.62 288.551 224.633V224.633ZM218.429 201.038L288.12 222.857C302.387 191.648 323.652 141.276 320.872 136.829C317.278 131.102 288.823 117.009 284.365 114.834L218.429 201.038Z" fill="#272A33"/>
<path d="M302.052 112.962C300.742 112.962 294.239 127.711 293.568 128.958C287.177 140.844 281.25 153.257 274.556 164.838C261.295 187.777 232.441 201.63 210.041 213.547C207.069 215.147 203.794 216.747 200.455 216.139C198.106 215.505 195.971 214.251 194.272 212.508C186.606 205.696 180.464 197.339 176.25 187.985C175.579 186.782 175.273 185.409 175.371 184.034C175.554 182.922 176.061 181.888 176.829 181.063C177.596 180.237 178.59 179.657 179.685 179.395C191.54 177.332 209.019 175.956 218.589 169.797C234.566 159.608 252.971 129.678 265.145 103.444C279.988 107.091 292.897 110.883 302.052 112.962Z" fill="#F85C3A"/>
<path d="M343.895 132.846C344.262 133.134 329.516 168.326 328.829 170.037C323.333 182.946 304.081 206.637 292.497 214.043C299.911 200.798 302.083 179.843 302.611 164.902C302.85 157.64 308.826 144.875 311.574 138.172C311.845 137.517 314.178 116.513 313.874 116.321C313.906 116.353 334.548 125.391 343.895 132.846Z" fill="#F85C3A"/>
<path d="M318.572 118.193L314.434 132.302C314.434 132.302 310.711 138.204 301.924 133.245C293.137 128.287 293.584 121.376 293.584 121.376L302.243 95.334C302.243 95.334 309.321 92.9985 311.574 77.2101C311.574 77.2101 324.883 85.8321 339.421 88.0396C339.421 88.0396 334.724 105.3 331.513 112.306C328.302 119.313 318.572 118.193 318.572 118.193Z" fill="white"/>
<path d="M308.395 136.013C305.963 135.926 303.597 135.209 301.524 133.933C292.418 128.782 292.769 121.616 292.785 121.312V121.12L301.445 95.0781C301.485 94.9608 301.552 94.8548 301.641 94.7686C301.73 94.6824 301.838 94.6185 301.956 94.5822C301.956 94.5822 308.602 92.0867 310.743 77.0821C310.764 76.9497 310.817 76.8245 310.899 76.7182C310.98 76.6118 311.087 76.5277 311.21 76.4735C311.332 76.4194 311.466 76.3969 311.6 76.4082C311.733 76.4195 311.862 76.4643 311.973 76.5382C312.101 76.6182 325.298 85.0963 339.485 87.2558C339.596 87.2702 339.703 87.3093 339.797 87.3702C339.891 87.4311 339.97 87.5123 340.029 87.6078C340.093 87.6997 340.136 87.8047 340.155 87.9153C340.175 88.0258 340.17 88.1393 340.14 88.2476C339.949 88.9674 335.347 105.668 332.152 112.642C329.196 119.041 321.416 119.153 319.051 119.041L315.105 132.526C315.089 132.597 315.056 132.663 315.009 132.718C314.245 133.751 313.247 134.588 312.097 135.161C310.947 135.733 309.679 136.025 308.395 136.013V136.013ZM294.383 121.52C294.383 122.352 294.559 128.159 302.371 132.542C309.88 136.797 313.267 132.638 313.747 131.95L317.853 117.969C317.907 117.79 318.021 117.636 318.175 117.531C318.329 117.426 318.514 117.378 318.7 117.393C318.795 117.393 327.902 118.353 330.842 111.97C333.59 106.004 337.472 92.2627 338.463 88.6955C326.56 86.696 315.536 80.5213 312.181 78.5218C310.008 91.6868 304.432 95.206 302.898 95.9259L294.383 121.52Z" fill="#272A33"/>
<path d="M306.925 95.8619C306.968 94.4712 306.564 93.1033 305.774 91.9588C304.978 90.9373 304.017 90.056 302.93 89.3514C302.378 88.9063 301.734 88.5895 301.045 88.4236C300.553 88.3646 300.053 88.4026 299.575 88.5356C298.413 88.743 297.364 89.3618 296.619 90.2792C296.106 91.082 295.798 91.9998 295.725 92.9506C295.581 93.9693 295.581 95.0032 295.725 96.0219C295.854 97.0436 296.186 98.0294 296.699 98.9219C297.212 99.8144 297.898 100.596 298.715 101.221C299.533 101.846 300.466 102.302 301.461 102.563C302.456 102.824 303.493 102.884 304.512 102.74" fill="white"/>
<path d="M303.362 103.62C301.273 103.621 299.256 102.86 297.689 101.479C296.121 100.098 295.11 98.1918 294.846 96.1179C294.73 95.0522 294.762 93.9754 294.942 92.9186C295.029 91.8419 295.38 90.8034 295.964 89.8953C296.813 88.7888 298.033 88.0274 299.399 87.7518C299.983 87.5965 300.591 87.5584 301.189 87.6398C302 87.8161 302.76 88.1774 303.41 88.6956C304.568 89.4494 305.589 90.3962 306.429 91.4949C307.327 92.7754 307.781 94.3147 307.723 95.8779C307.711 96.0901 307.618 96.2896 307.464 96.4353C307.309 96.5811 307.105 96.6621 306.892 96.6618C306.682 96.6494 306.484 96.5558 306.341 96.4007C306.198 96.2456 306.121 96.041 306.126 95.83C306.167 94.6151 305.814 93.4194 305.119 92.4227C304.384 91.4733 303.492 90.6564 302.483 90.0073C302.016 89.6295 301.47 89.3616 300.885 89.2234C300.494 89.1659 300.095 89.1987 299.719 89.3194C298.746 89.4838 297.863 89.9883 297.226 90.7431C296.811 91.4607 296.57 92.2663 296.523 93.0946C296.36 94.0401 296.328 95.0036 296.428 95.9579C296.548 96.874 296.847 97.7573 297.309 98.5569C297.772 99.3566 298.387 100.057 299.121 100.617C299.854 101.178 300.691 101.588 301.584 101.823C302.476 102.058 303.406 102.115 304.32 101.989C304.527 101.961 304.737 102.016 304.905 102.142C305.072 102.267 305.183 102.453 305.215 102.66C305.243 102.87 305.188 103.082 305.063 103.252C304.938 103.422 304.752 103.537 304.544 103.572C304.151 103.612 303.756 103.628 303.362 103.62V103.62Z" fill="#272A33"/>
<path d="M324.531 94.6942C324.531 94.6942 327.726 103.38 326.129 104.388C324.531 105.396 321.511 103.716 321.511 103.716" fill="white"/>
<path d="M324.962 105.428C323.647 105.341 322.366 104.969 321.208 104.34C321.116 104.291 321.035 104.225 320.969 104.144C320.903 104.064 320.853 103.971 320.823 103.871C320.794 103.771 320.784 103.667 320.795 103.563C320.806 103.46 320.838 103.359 320.888 103.268C320.937 103.174 321.004 103.091 321.085 103.023C321.166 102.955 321.26 102.904 321.361 102.873C321.462 102.842 321.569 102.831 321.674 102.841C321.779 102.851 321.881 102.882 321.975 102.932C322.853 103.412 324.93 104.196 325.761 103.652C326.161 103.028 325.266 98.8533 323.812 94.8862C323.774 94.7886 323.755 94.6844 323.758 94.5796C323.761 94.4749 323.784 94.3717 323.828 94.2763C323.871 94.1808 323.933 94.095 324.01 94.0239C324.087 93.9529 324.177 93.8979 324.275 93.8624C324.475 93.7904 324.694 93.8005 324.886 93.8904C325.078 93.9804 325.226 94.1429 325.298 94.3423C326.896 98.5813 328.317 103.94 326.656 104.98C326.146 105.289 325.558 105.445 324.962 105.428V105.428Z" fill="#272A33"/>
<path d="M318.572 118.193C318.572 118.193 311.302 115.873 308.554 112.818C308.554 112.818 308.714 122.032 315.936 126.639L318.572 118.193Z" fill="#272A33"/>
<path d="M315.936 127.439C315.783 127.434 315.635 127.39 315.504 127.311C308.011 122.512 307.756 113.234 307.756 112.914C307.749 112.752 307.793 112.593 307.882 112.458C307.971 112.323 308.1 112.219 308.251 112.162C308.403 112.098 308.571 112.084 308.732 112.121C308.893 112.158 309.037 112.246 309.146 112.37C311.718 115.234 318.732 117.489 318.812 117.505C318.912 117.536 319.006 117.587 319.087 117.654C319.168 117.722 319.234 117.806 319.282 117.9C319.329 117.994 319.358 118.097 319.365 118.202C319.372 118.307 319.358 118.413 319.323 118.513L316.703 126.959C316.664 127.074 316.601 127.179 316.518 127.267C316.436 127.355 316.335 127.425 316.223 127.471C316.126 127.476 316.029 127.465 315.936 127.439ZM309.545 114.786C310.129 118.929 312.245 122.702 315.472 125.359L317.565 118.689C314.746 117.738 312.061 116.426 309.577 114.786H309.545Z" fill="#272A33"/>
<path d="M315.552 88.7755C315.552 88.7755 319.371 86.0561 321.128 90.951Z" fill="white"/>
<path d="M321.128 91.7508C320.964 91.7485 320.805 91.6969 320.671 91.6027C320.537 91.5086 320.435 91.3762 320.377 91.2229C320.271 90.7265 320.054 90.2609 319.741 89.8616C319.428 89.4624 319.028 89.1401 318.572 88.9194C318.146 88.8362 317.707 88.8386 317.282 88.9264C316.857 89.0143 316.454 89.1859 316.095 89.4313C316.009 89.4927 315.912 89.5364 315.809 89.56C315.707 89.5836 315.6 89.5865 315.496 89.5687C315.392 89.5508 315.293 89.5125 315.204 89.456C315.114 89.3995 315.037 89.3258 314.977 89.2393C314.916 89.1547 314.873 89.0586 314.849 88.9569C314.826 88.8552 314.823 88.7499 314.841 88.6471C314.859 88.5443 314.897 88.4461 314.953 88.3583C315.009 88.2704 315.083 88.1947 315.169 88.1356C315.725 87.741 316.359 87.4698 317.029 87.3401C317.698 87.2105 318.388 87.2254 319.051 87.3838C319.763 87.6613 320.398 88.1051 320.904 88.6783C321.41 89.2515 321.771 89.9375 321.959 90.679C322.002 90.7998 322.016 90.9293 321.999 91.0565C321.982 91.1838 321.935 91.3052 321.861 91.4103C321.788 91.5154 321.69 91.6012 321.576 91.6605C321.462 91.7198 321.336 91.7507 321.208 91.7508H321.128Z" fill="#272A33"/>
<path d="M328.158 94.8702C328.158 94.8702 331.529 90.7111 333.686 95.622Z" fill="white"/>
<path d="M333.686 96.4218C333.53 96.4224 333.377 96.3772 333.247 96.2919C333.116 96.2067 333.013 96.085 332.951 95.9419C332.599 95.1261 332.008 94.1503 331.193 94.0384C330.378 93.9264 329.116 94.9501 328.765 95.3661C328.703 95.4593 328.623 95.5386 328.529 95.5988C328.434 95.659 328.329 95.6988 328.218 95.7155C328.108 95.7322 327.995 95.7256 327.887 95.696C327.78 95.6664 327.679 95.6145 327.593 95.5437C327.506 95.4729 327.436 95.3847 327.385 95.2848C327.335 95.185 327.306 95.0756 327.301 94.9639C327.295 94.8522 327.313 94.7406 327.354 94.6363C327.394 94.532 327.456 94.4373 327.535 94.3583C327.981 93.7674 328.558 93.288 329.221 92.9578C329.883 92.6275 330.613 92.4553 331.353 92.4547C332.599 92.6147 333.606 93.5745 334.373 95.3021C334.454 95.4976 334.456 95.7171 334.378 95.9141C334.301 96.1111 334.15 96.2702 333.957 96.3578C333.87 96.3903 333.779 96.4118 333.686 96.4218V96.4218Z" fill="#272A33"/>
<path d="M329.26 107.715C329.26 107.715 313.283 117.089 313.283 100.421Z" fill="white"/>
<path d="M320.585 111.154C319.186 111.187 317.803 110.85 316.575 110.179C313.859 108.579 312.469 105.38 312.453 100.437C312.45 100.331 312.47 100.225 312.509 100.126C312.548 100.027 312.606 99.937 312.681 99.861C312.755 99.785 312.844 99.7247 312.942 99.6835C313.04 99.6423 313.145 99.6211 313.251 99.6211C313.462 99.6252 313.663 99.7108 313.812 99.8599C313.961 100.009 314.046 100.21 314.05 100.421C314.05 104.74 315.185 107.555 317.357 108.787C321.623 111.218 328.781 107.075 328.861 107.027C329.045 106.921 329.264 106.893 329.469 106.948C329.674 107.004 329.849 107.139 329.955 107.323C330.061 107.508 330.09 107.727 330.034 107.933C329.979 108.138 329.844 108.313 329.66 108.419C326.886 110.019 323.78 110.955 320.585 111.154V111.154Z" fill="#272A33"/>
<path d="M303.266 136.717L295.773 138.908L298.313 143.707C298.313 143.707 279.141 168.278 267.158 169.301C260.214 169.776 253.292 168.101 247.331 164.502L234.55 170.501C234.55 170.501 246.181 180.467 246.932 181.251C247.683 182.034 266.951 187.649 280.02 173.252C287.731 164.739 294.681 155.565 300.79 145.835L305.247 143.883L303.266 136.717Z" fill="#272A33"/>
<path d="M271.184 163.479C270.993 163.477 270.809 163.406 270.666 163.28C270.522 163.154 270.428 162.98 270.402 162.791L266.887 139.084C266.862 138.899 266.904 138.712 267.003 138.554C267.102 138.397 267.253 138.278 267.43 138.22L279.397 134.317L271.041 126.687C270.939 126.593 270.864 126.475 270.822 126.343C270.78 126.211 270.773 126.071 270.801 125.935C270.831 125.8 270.896 125.674 270.988 125.571C271.08 125.467 271.197 125.389 271.328 125.343L289.302 119.121C289.503 119.051 289.724 119.064 289.916 119.157C290.108 119.25 290.255 119.415 290.325 119.617C290.395 119.818 290.382 120.039 290.289 120.231C290.196 120.423 290.031 120.57 289.829 120.64L273.118 126.415L281.473 134.093C281.578 134.189 281.655 134.31 281.697 134.445C281.739 134.58 281.744 134.723 281.713 134.861C281.686 134.998 281.622 135.125 281.53 135.229C281.437 135.333 281.318 135.41 281.186 135.453L268.58 139.564L271.983 162.599C272.011 162.806 271.956 163.017 271.83 163.184C271.705 163.351 271.519 163.463 271.312 163.495L271.184 163.479Z" fill="#272A33"/>
<path d="M227.679 189.217H227.504C227.344 189.217 210.92 185.89 202.021 183.858C201.918 183.837 201.821 183.796 201.735 183.737C201.648 183.678 201.575 183.602 201.518 183.514C201.462 183.426 201.423 183.328 201.405 183.225C201.387 183.122 201.39 183.016 201.413 182.914C201.436 182.811 201.479 182.714 201.54 182.627C201.6 182.541 201.677 182.467 201.766 182.41C201.855 182.354 201.955 182.316 202.059 182.298C202.163 182.28 202.269 182.283 202.372 182.306C211.255 184.322 227.647 187.617 227.823 187.649C227.926 187.67 228.024 187.711 228.111 187.77C228.198 187.829 228.272 187.904 228.33 187.992C228.388 188.08 228.428 188.178 228.448 188.281C228.468 188.384 228.467 188.49 228.446 188.593C228.404 188.767 228.307 188.922 228.168 189.035C228.03 189.147 227.858 189.211 227.679 189.217Z" fill="#272A33"/>
<path d="M310.248 165.35C310.086 165.351 309.928 165.303 309.794 165.213C309.66 165.122 309.557 164.992 309.498 164.842C309.439 164.691 309.427 164.526 309.464 164.368C309.501 164.21 309.585 164.068 309.705 163.959L327.695 147.482L319.706 140.396C319.612 140.313 319.54 140.209 319.495 140.092C319.45 139.975 319.435 139.848 319.451 139.724C319.459 139.597 319.498 139.473 319.565 139.365C319.632 139.256 319.724 139.165 319.834 139.1L331.098 132.606L323.748 126.687C323.584 126.555 323.478 126.363 323.454 126.153C323.43 125.944 323.49 125.733 323.621 125.567C323.76 125.407 323.955 125.307 324.165 125.286C324.376 125.265 324.587 125.326 324.755 125.455L332.951 132.158C333.049 132.242 333.126 132.348 333.176 132.468C333.226 132.587 333.247 132.716 333.239 132.846C333.227 132.974 333.185 133.098 333.115 133.207C333.046 133.315 332.951 133.405 332.839 133.469L321.544 139.996L329.404 146.938C329.496 147.001 329.575 147.081 329.635 147.175C329.695 147.268 329.736 147.373 329.756 147.482C329.756 147.595 329.733 147.706 329.686 147.808C329.639 147.911 329.57 148.001 329.484 148.074L310.775 165.078C310.64 165.232 310.452 165.329 310.248 165.35V165.35Z" fill="#272A33"/>
<path d="M267.446 210.06C267.312 210.061 267.18 210.028 267.062 209.964C266.878 209.86 266.742 209.688 266.683 209.485C266.623 209.282 266.645 209.064 266.743 208.876C266.918 208.557 284.397 176.884 293.009 159.783C293.051 159.682 293.113 159.59 293.193 159.514C293.272 159.438 293.366 159.379 293.469 159.341C293.572 159.303 293.682 159.286 293.791 159.292C293.901 159.299 294.008 159.328 294.106 159.377C294.204 159.427 294.291 159.496 294.361 159.581C294.431 159.666 294.483 159.764 294.514 159.87C294.544 159.975 294.552 160.086 294.538 160.195C294.524 160.304 294.487 160.409 294.43 160.503C285.819 177.651 268.324 209.324 268.149 209.644C268.081 209.772 267.98 209.878 267.855 209.951C267.731 210.025 267.59 210.062 267.446 210.06Z" fill="#D1D3D4"/>
<path d="M118.206 343.55L104.019 361.146C104.019 361.146 113.924 407.536 120.187 402.401C126.45 397.266 130.508 375.591 130.508 375.591L118.206 343.55Z" fill="white"/>
<path d="M119.165 403.569C118.897 403.566 118.633 403.517 118.382 403.425C111.991 401.185 104.099 365.337 103.236 361.258C103.211 361.141 103.212 361.02 103.239 360.904C103.267 360.788 103.32 360.679 103.396 360.586L117.583 342.99C117.668 342.88 117.781 342.795 117.911 342.744C118.04 342.694 118.181 342.679 118.318 342.702C118.456 342.723 118.586 342.78 118.696 342.867C118.805 342.954 118.89 343.068 118.941 343.198L131.259 375.191C131.3 375.332 131.3 375.482 131.259 375.623C131.099 376.519 127.073 397.586 120.667 402.913C120.261 403.305 119.728 403.538 119.165 403.569V403.569ZM104.786 361.306C107.981 376.407 114.643 400.465 118.829 401.921C118.96 401.97 119.103 401.979 119.239 401.947C119.375 401.916 119.499 401.846 119.596 401.745C125.236 397.058 129.182 377.894 129.598 375.607L117.871 345.134L104.786 361.306Z" fill="#272A33"/>
<path d="M274.076 100.005C274.076 100.005 261.966 141.084 250.862 151.977C239.758 162.871 215.713 176.148 218.621 169.861C221.528 163.575 235.524 158.424 245.366 140.38C255.208 122.336 261.63 97.1896 261.63 97.1896C261.63 97.1896 260.752 92.7426 267.286 94.2303C273.821 95.7179 274.076 100.005 274.076 100.005Z" fill="#272A33"/>
<path d="M313.235 193.76C321.052 186.044 327.791 177.305 333.27 167.782C340.252 155.529 345.588 138.54 347.506 131.998C347.728 131.231 347.672 130.41 347.348 129.681C347.023 128.952 346.451 128.361 345.732 128.015L343.543 126.911C343.096 126.684 342.603 126.56 342.102 126.548C341.6 126.535 341.102 126.634 340.643 126.838C340.185 127.041 339.777 127.344 339.45 127.725C339.122 128.105 338.883 128.554 338.75 129.038C335.715 140.14 326.304 171.893 313.235 193.76Z" fill="#272A33"/>
<path d="M226.018 136.957C227.12 138.204 237.697 144.955 237.697 144.955C237.697 144.955 242.33 138.46 246.948 137.469L244.056 142.683L258.722 142.891C258.722 142.891 258.722 156.776 245.829 159.624C232.936 162.471 210.872 149.082 210.872 149.082" fill="white"/>
<path d="M241.883 160.807C228.814 160.807 211.287 150.202 210.473 149.706C210.38 149.653 210.3 149.582 210.236 149.497C210.172 149.413 210.126 149.316 210.1 149.212C210.075 149.109 210.071 149.002 210.088 148.897C210.105 148.792 210.144 148.692 210.201 148.602C210.256 148.513 210.329 148.435 210.415 148.374C210.5 148.312 210.597 148.269 210.699 148.245C210.802 148.221 210.908 148.218 211.011 148.235C211.115 148.253 211.214 148.29 211.303 148.346C211.511 148.474 233.176 161.559 245.67 158.824C256.246 156.504 257.716 146.571 257.908 143.659L244.056 143.467C243.919 143.465 243.785 143.427 243.667 143.357C243.549 143.287 243.452 143.187 243.385 143.067C243.318 142.945 243.283 142.807 243.283 142.667C243.283 142.528 243.318 142.39 243.385 142.267L245.222 139.068C242.56 140.756 240.235 142.926 238.368 145.467C238.312 145.551 238.239 145.624 238.155 145.68C238.071 145.736 237.976 145.775 237.876 145.794C237.777 145.814 237.674 145.813 237.575 145.793C237.476 145.772 237.381 145.732 237.298 145.675C236.195 144.971 226.593 138.812 225.443 137.517C225.373 137.438 225.32 137.347 225.287 137.248C225.253 137.149 225.24 137.044 225.247 136.94C225.254 136.835 225.283 136.734 225.33 136.64C225.377 136.547 225.443 136.464 225.523 136.397C225.595 136.32 225.681 136.259 225.777 136.218C225.874 136.176 225.977 136.154 226.082 136.154C226.187 136.154 226.29 136.176 226.387 136.218C226.483 136.259 226.569 136.32 226.641 136.397C227.36 137.197 233.447 141.196 237.521 143.867C238.848 142.171 242.762 137.469 246.82 136.669C246.97 136.638 247.125 136.652 247.267 136.709C247.409 136.766 247.531 136.863 247.619 136.989C247.701 137.118 247.745 137.267 247.745 137.421C247.745 137.574 247.701 137.724 247.619 137.852L245.382 141.852L258.707 142.044C258.914 142.044 259.113 142.126 259.26 142.273C259.407 142.42 259.49 142.619 259.49 142.827C259.49 142.987 259.49 157.416 245.973 160.423C244.627 160.696 243.256 160.825 241.883 160.807V160.807Z" fill="#272A33"/>
<path d="M345.109 182.194L335.523 176.356L333.255 167.782L328.813 172.837C328.813 172.837 322.422 167.558 318.396 169.477C315.201 171.077 313.603 179.267 316.798 183.394C319.994 187.521 338.415 197.295 338.415 197.295" fill="white"/>
<path d="M338.399 198.095C338.27 198.096 338.143 198.063 338.031 197.999C337.265 197.599 319.339 188.113 316.159 183.874C313.97 180.995 314.002 176.692 314.705 173.892C314.864 172.845 315.245 171.845 315.824 170.959C316.403 170.073 317.166 169.322 318.06 168.758C321.831 166.998 326.96 170.357 328.733 171.733L332.679 167.254C332.774 167.144 332.898 167.063 333.036 167.018C333.174 166.974 333.321 166.968 333.462 167.001C333.603 167.033 333.733 167.104 333.837 167.205C333.941 167.306 334.016 167.434 334.053 167.574L336.226 175.844L345.525 181.507C345.614 181.562 345.691 181.635 345.753 181.72C345.814 181.806 345.858 181.903 345.881 182.005C345.905 182.108 345.908 182.214 345.891 182.318C345.874 182.422 345.836 182.521 345.78 182.61C345.728 182.701 345.658 182.779 345.574 182.842C345.491 182.905 345.395 182.95 345.294 182.975C345.193 183.001 345.088 183.006 344.985 182.99C344.882 182.974 344.783 182.937 344.694 182.882L335.108 177.044C335.02 176.991 334.944 176.922 334.884 176.839C334.823 176.757 334.78 176.663 334.756 176.564L332.951 169.429L329.5 173.364C329.349 173.507 329.149 173.587 328.941 173.587C328.733 173.587 328.533 173.507 328.381 173.364C326.784 171.989 321.783 168.726 318.795 170.165C318.124 170.639 317.557 171.245 317.128 171.947C316.699 172.648 316.419 173.43 316.303 174.244C315.897 175.687 315.791 177.199 315.991 178.684C316.192 180.17 316.695 181.599 317.469 182.882C320.457 186.833 338.639 196.463 338.83 196.559C338.922 196.608 339.004 196.674 339.07 196.755C339.136 196.835 339.185 196.928 339.215 197.028C339.244 197.128 339.254 197.233 339.243 197.336C339.232 197.44 339.2 197.54 339.15 197.631C339.086 197.775 338.98 197.896 338.846 197.979C338.712 198.062 338.556 198.102 338.399 198.095Z" fill="#272A33"/>
<path d="M13.6857 320.595C13.5293 320.599 13.3748 320.56 13.2383 320.483C13.0547 320.362 12.9253 320.174 12.8776 319.959C12.8299 319.744 12.8676 319.519 12.9827 319.332L112.47 161.879C112.591 161.695 112.779 161.566 112.994 161.518C113.209 161.47 113.433 161.508 113.621 161.623C113.803 161.741 113.932 161.926 113.98 162.139C114.028 162.351 113.991 162.574 113.876 162.759L14.3727 320.243C14.2983 320.357 14.1959 320.448 14.0755 320.51C13.9551 320.572 13.8208 320.601 13.6857 320.595V320.595Z" fill="#D1D3D4"/>
<path d="M77.9763 311.157C77.8817 311.18 77.7832 311.18 77.6887 311.157C77.5876 311.12 77.495 311.063 77.4161 310.99C77.3372 310.916 77.2736 310.828 77.229 310.73C77.1845 310.631 77.1598 310.525 77.1564 310.418C77.153 310.31 77.171 310.202 77.2094 310.102L130.924 169.877C130.961 169.776 131.018 169.683 131.091 169.604C131.164 169.525 131.253 169.462 131.351 169.417C131.449 169.372 131.555 169.348 131.662 169.344C131.77 169.341 131.877 169.359 131.978 169.397C132.183 169.476 132.349 169.633 132.439 169.834C132.529 170.035 132.535 170.263 132.457 170.469L78.7591 310.646C78.6933 310.798 78.5839 310.928 78.4447 311.019C78.3054 311.111 78.1425 311.158 77.9763 311.157V311.157Z" fill="#D1D3D4"/>
<path d="M291.507 419.821C291.359 419.818 291.215 419.773 291.091 419.693C290.903 419.58 290.768 419.397 290.714 419.185C290.66 418.972 290.692 418.746 290.804 418.557L378.181 274.27C378.235 274.175 378.308 274.092 378.395 274.026C378.482 273.96 378.582 273.912 378.687 273.885C378.793 273.859 378.903 273.853 379.011 273.87C379.119 273.886 379.223 273.924 379.315 273.982C379.501 274.097 379.633 274.281 379.684 274.494C379.735 274.706 379.7 274.931 379.587 275.118L292.226 419.421C292.15 419.543 292.044 419.644 291.918 419.714C291.792 419.784 291.651 419.821 291.507 419.821V419.821Z" fill="#D1D3D4"/>
<path d="M356.916 414.446H356.677C356.47 414.377 356.298 414.229 356.197 414.036C356.095 413.842 356.073 413.617 356.134 413.407C360.304 399.762 396.843 280.061 397.482 278.749C397.575 278.554 397.742 278.404 397.945 278.332C398.149 278.26 398.373 278.272 398.568 278.365C398.763 278.459 398.914 278.625 398.988 278.828C399.063 279.031 399.055 279.255 398.968 279.453C398.169 281.484 371.647 368.249 357.699 413.822C357.659 414 357.56 414.159 357.418 414.272C357.275 414.386 357.098 414.447 356.916 414.446Z" fill="#D1D3D4"/>
<path d="M336.626 406.992C336.526 407.015 336.422 407.015 336.322 406.992C336.122 406.907 335.963 406.748 335.877 406.549C335.791 406.349 335.784 406.124 335.859 405.92L366.726 329.137C366.811 328.937 366.97 328.778 367.169 328.692C367.368 328.605 367.593 328.599 367.797 328.674C367.899 328.714 367.992 328.774 368.07 328.851C368.149 328.928 368.212 329.019 368.255 329.121C368.298 329.222 368.321 329.33 368.321 329.44C368.322 329.55 368.301 329.659 368.26 329.761L337.393 406.544C337.323 406.686 337.214 406.805 337.077 406.884C336.941 406.964 336.783 407.002 336.626 406.992Z" fill="#D1D3D4"/>
<path d="M59.0919 284.859C58.9509 284.86 58.8124 284.822 58.6924 284.747C58.5973 284.696 58.5134 284.625 58.4456 284.541C58.3779 284.456 58.3277 284.359 58.298 284.255C58.2682 284.15 58.2595 284.041 58.2724 283.934C58.2852 283.826 58.3194 283.722 58.3729 283.628L96.5895 215.083C96.6428 214.987 96.7144 214.903 96.8003 214.835C96.8863 214.767 96.9848 214.717 97.0902 214.687C97.1956 214.657 97.3059 214.649 97.4146 214.662C97.5234 214.675 97.6285 214.709 97.7238 214.763C97.914 214.874 98.0537 215.054 98.1133 215.266C98.173 215.478 98.1479 215.705 98.0434 215.899L59.7469 284.444C59.6798 284.561 59.585 284.66 59.4708 284.733C59.3567 284.805 59.2266 284.849 59.0919 284.859V284.859Z" fill="#D1D3D4"/>
<path d="M51.9183 336.528C51.8184 336.55 51.7147 336.55 51.6148 336.528C51.5127 336.488 51.4198 336.427 51.3416 336.35C51.2634 336.273 51.2015 336.181 51.1598 336.079C51.118 335.978 51.0971 335.869 51.0984 335.759C51.0998 335.649 51.1232 335.541 51.1674 335.44L61.1529 311.445C61.241 311.245 61.4033 311.086 61.6059 311.002C61.8085 310.919 62.0356 310.917 62.2394 310.997C62.4371 311.089 62.5923 311.252 62.6726 311.455C62.7529 311.657 62.7523 311.883 62.6707 312.085L52.6852 336.08C52.6143 336.221 52.5042 336.338 52.3681 336.418C52.2319 336.497 52.0757 336.535 51.9183 336.528Z" fill="#D1D3D4"/>
<path d="M308.985 420.653C308.844 420.656 308.705 420.617 308.586 420.541C308.491 420.489 308.407 420.419 308.339 420.334C308.271 420.25 308.221 420.152 308.192 420.048C308.162 419.944 308.153 419.835 308.166 419.727C308.179 419.619 308.213 419.515 308.266 419.421L324.707 389.572C324.813 389.381 324.99 389.24 325.2 389.18C325.409 389.12 325.634 389.146 325.825 389.252C326.016 389.358 326.156 389.536 326.216 389.746C326.276 389.956 326.25 390.181 326.145 390.372L309.688 420.221C309.62 420.349 309.519 420.457 309.396 420.533C309.272 420.608 309.13 420.65 308.985 420.653V420.653Z" fill="#D1D3D4"/>
<ellipse cx="22.7638" cy="152.838" rx="22.7638" ry="22.7638" fill="#FFAE03"/>
<path d="M497.408 66.5573C497.408 64.2479 499.908 62.8046 501.908 63.9593L549.817 91.6199C551.817 92.7746 551.817 95.6613 549.817 96.816L501.908 124.477C499.908 125.631 497.408 124.188 497.408 121.879L497.408 66.5573Z" fill="#4056F4"/>
<mask id="path-78-inside-1_110_9388" fill="white">
<rect x="70" y="59.7919" width="30.1048" height="30.1048" rx="3.60547" transform="rotate(-15 70 59.7919)"/>
</mask>
<rect x="70" y="59.7919" width="30.1048" height="30.1048" rx="3.60547" transform="rotate(-15 70 59.7919)" stroke="#272A33" stroke-width="12" mask="url(#path-78-inside-1_110_9388)"/>
<mask id="path-79-inside-2_110_9388" fill="white">
<rect x="464.551" y="303.754" width="34.5776" height="34.5776" rx="3.60547" transform="rotate(-45 464.551 303.754)"/>
</mask>
<rect x="464.551" y="303.754" width="34.5776" height="34.5776" rx="3.60547" transform="rotate(-45 464.551 303.754)" stroke="#F02D3A" stroke-width="18.0274" mask="url(#path-79-inside-2_110_9388)"/>
</svg>
