<svg width="20" height="25" viewBox="0 0 20 25" fill="none" xmlns="http://www.w3.org/2000/svg">
<path d="M0.666748 24.6667C0.666748 22.1913 1.65008 19.8174 3.40042 18.067C5.15076 16.3167 7.52473 15.3334 10.0001 15.3334C12.4754 15.3334 14.8494 16.3167 16.5997 18.067C18.3501 19.8174 19.3334 22.1913 19.3334 24.6667H0.666748ZM11.1667 17.7635V22.3334H16.6022C16.1852 21.1567 15.4615 20.1127 14.5059 19.3093C13.5504 18.5059 12.3976 17.9723 11.1667 17.7635ZM8.83342 22.3334V17.7635C7.60258 17.9723 6.44981 18.5059 5.49424 19.3093C4.53867 20.1127 3.81497 21.1567 3.39791 22.3334H8.83342ZM10.0001 14.1667C6.13258 14.1667 3.00008 11.0342 3.00008 7.16669C3.00008 3.29919 6.13258 0.166687 10.0001 0.166687C13.8676 0.166687 17.0001 3.29919 17.0001 7.16669C17.0001 11.0342 13.8676 14.1667 10.0001 14.1667ZM10.0001 11.8334C12.5784 11.8334 14.6667 9.74502 14.6667 7.16669C14.6667 4.58835 12.5784 2.50002 10.0001 2.50002C7.42175 2.50002 5.33342 4.58835 5.33342 7.16669C5.33342 9.74502 7.42175 11.8334 10.0001 11.8334Z" fill="#F85C3A"/>
</svg>
