<svg width="56" height="57" viewBox="0 0 56 57" fill="none" xmlns="http://www.w3.org/2000/svg">
<path d="M52.1504 24.6287C52.1504 37.867 41.3536 48.6335 28.0923 48.6335C18.7646 48.6335 10.1912 43.1781 6.26193 34.7346C4.77529 31.5585 4.02539 28.1592 4.02539 24.6287C4.02539 18.5695 6.29701 12.7816 10.4193 8.33235C11.1692 7.523 12.4365 7.47925 13.2434 8.22298C14.0547 8.97108 14.103 10.2354 13.3531 11.0404C9.91494 14.7503 8.02046 19.5714 8.02046 24.6243C8.02046 27.5686 8.64757 30.4035 9.87985 33.0503C11.8577 37.2895 15.23 40.6276 19.304 42.6094C21.9922 43.9175 24.9874 44.6393 28.0835 44.6393C31.2278 44.6393 34.2099 43.9131 36.8674 42.6181C42.9718 39.6388 47.3484 33.6584 48.0457 26.6149H40.1476C39.0425 26.6149 38.1479 25.7224 38.1479 24.62C38.1479 23.5219 39.0425 22.625 40.1476 22.625H50.1507C51.2514 22.6338 52.1504 23.5306 52.1504 24.6287Z" fill="#272A33"/>
<path d="M28 45.1689C39.598 45.1689 49 35.9908 49 24.6689C49 13.3471 39.598 4.16895 28 4.16895C16.402 4.16895 7 13.3471 7 24.6689C7 35.9908 16.402 45.1689 28 45.1689Z" fill="#EFEFEF"/>
<g clip-path="url(#clip0_189_11421)">
<path d="M38 26.5099C36.9317 26.1315 35.7781 26.0634 34.6727 26.3135C33.5674 26.5636 32.5554 27.1216 31.754 27.923C30.9527 28.7244 30.3946 29.7363 30.1446 30.8417C29.8945 31.9471 29.9626 33.1007 30.341 34.1689H19C18.7348 34.1689 18.4804 34.0636 18.2929 33.8761C18.1054 33.6885 18 33.4342 18 33.1689V17.1689C18 16.9037 18.1054 16.6494 18.2929 16.4618C18.4804 16.2743 18.7348 16.1689 19 16.1689H37C37.2652 16.1689 37.5196 16.2743 37.7071 16.4618C37.8946 16.6494 38 16.9037 38 17.1689V26.5099ZM28.06 24.8519L21.648 19.4069L20.353 20.9309L28.073 27.4859L35.654 20.9259L34.346 19.4129L28.061 24.8519H28.06ZM35 35.1689L31.464 31.6329L32.879 30.2189L35 32.3409L38.536 28.8049L39.95 30.2189L35 35.1689Z" fill="#333333"/>
</g>
<defs>
<clipPath id="clip0_189_11421">
<rect width="24" height="24" fill="white" transform="translate(16 13.1689)"/>
</clipPath>
</defs>
</svg>
