<svg width="132" height="40" viewBox="0 0 132 40" fill="none" xmlns="http://www.w3.org/2000/svg">
<g clip-path="url(#clip0_108_9985)">
<path d="M52.89 10.0682C52.4176 9.59688 52.1833 9.01655 52.1833 8.32327C52.1833 7.62999 52.4176 7.04576 52.89 6.57838C53.3624 6.111 53.9441 5.87341 54.6391 5.87341C55.3106 5.87341 55.8845 6.1071 56.3569 6.57838C56.8293 7.04965 57.0636 7.62999 57.0636 8.32327C57.0636 9.01655 56.8293 9.59688 56.3569 10.0682C55.8845 10.5394 55.3145 10.7731 54.6391 10.7731C53.9441 10.7731 53.3624 10.5355 52.89 10.0682Z" fill="#272A33"/>
<path d="M56.5248 15.1354V29.8034C56.5248 30.8589 55.6659 31.7157 54.6079 31.7157C53.5498 31.7157 52.6909 30.8589 52.6909 29.8034V15.1354C52.6909 14.0799 53.5498 13.223 54.6079 13.223C55.6659 13.223 56.5248 14.0799 56.5248 15.1354Z" fill="#272A33"/>
<path d="M72.8248 13.8267C73.9804 14.4304 74.8823 15.3262 75.5343 16.5102C76.1863 17.6982 76.5104 19.1276 76.5104 20.8062V29.8189C76.5104 30.8666 75.6592 31.7157 74.609 31.7157C73.5588 31.7157 72.7077 30.8666 72.7077 29.8189V21.3788C72.7077 19.7235 72.2938 18.4538 71.4622 17.5696C70.6306 16.6855 69.4984 16.2454 68.0656 16.2454C66.6288 16.2454 65.4927 16.6855 64.6494 17.5696C63.81 18.4538 63.3884 19.7235 63.3884 21.3788V29.8033C63.3884 30.8588 62.5294 31.7157 61.4714 31.7157C60.4134 31.7157 59.5544 30.8588 59.5544 29.8033V15.1354C59.5544 14.0799 60.4134 13.223 61.4714 13.223C62.5294 13.223 63.3884 14.0799 63.3884 15.1354V15.3379C64.0169 14.5784 64.8173 13.9825 65.7933 13.5579C66.7694 13.1334 67.8079 12.9192 68.905 12.9192C70.3613 12.9192 71.6692 13.223 72.8248 13.8267Z" fill="#272A33"/>
<path d="M98.0693 15.1003C97.8038 15.1003 97.5617 14.9523 97.4251 14.7225C96.8395 13.7449 96.0703 12.9932 95.1138 12.4635C94.0363 11.8715 92.7908 11.5755 91.3814 11.5755C89.8353 11.5755 88.4533 11.9221 87.243 12.6154C86.0327 13.3087 85.0839 14.2941 84.4007 15.5677C83.7175 16.8413 83.3739 18.3213 83.3739 19.9961C83.3739 21.6748 83.7175 23.1548 84.4007 24.444C85.0839 25.7293 86.0327 26.7225 87.243 27.4158C88.4533 28.1091 89.8353 28.4557 91.3814 28.4557C93.4662 28.4557 95.1607 27.8754 96.4608 26.7108C97.7609 25.5463 98.5573 23.9688 98.8501 21.9786H91.6C90.7528 21.9786 90.0696 21.2931 90.0696 20.4518C90.0696 19.6066 90.7567 18.925 91.6 18.925H101.47C102.29 18.925 102.953 19.5872 102.953 20.4051V21.9124C102.707 23.7235 102.063 25.3905 101.021 26.9133C99.9784 28.4362 98.6198 29.6475 96.9488 30.555C95.2778 31.4625 93.4233 31.9143 91.3814 31.9143C89.1833 31.9143 87.1766 31.4041 85.3611 30.3875C83.5457 29.371 82.105 27.9533 81.0392 26.1422C79.9734 24.3311 79.4424 22.2824 79.4424 20C79.4424 17.7176 79.9734 15.6689 81.0392 13.8578C82.105 12.0467 83.5496 10.629 85.3807 9.61247C87.2078 8.59592 89.2107 8.08569 91.3853 8.08569C93.8762 8.08569 96.0899 8.69718 98.0302 9.91627C99.6466 10.9328 100.892 12.2999 101.767 14.0214C102.02 14.5161 101.661 15.1042 101.107 15.1042H98.0693V15.1003Z" fill="#272A33"/>
<path d="M109.88 8.79066V29.7994C109.88 30.8549 109.021 31.7118 107.963 31.7118C106.905 31.7118 106.046 30.8549 106.046 29.7994V8.79066C106.046 7.73516 106.905 6.8783 107.963 6.8783C109.021 6.8783 109.88 7.73516 109.88 8.79066Z" fill="#272A33"/>
<path d="M117.551 30.8238C116.138 30.0292 115.029 28.9114 114.221 27.4664C113.413 26.0253 113.011 24.3505 113.011 22.4499C113.011 20.5686 113.425 18.9055 114.256 17.4489C115.084 15.9961 116.22 14.8783 117.653 14.0915C119.09 13.3087 120.69 12.9153 122.463 12.9153C124.235 12.9153 125.836 13.3087 127.273 14.0915C128.71 14.8744 129.842 15.9922 130.669 17.4489C131.501 18.9055 131.915 20.5686 131.915 22.4499C131.915 24.3311 131.489 25.9981 130.634 27.4508C129.783 28.9036 128.62 30.0292 127.152 30.8238C125.684 31.6183 124.064 32.0156 122.291 32.0156C120.546 32.0156 118.965 31.6183 117.551 30.8238ZM125.071 27.9883C125.934 27.517 126.636 26.8121 127.175 25.8734C127.714 24.9348 127.983 23.7936 127.983 22.4499C127.983 21.1061 127.726 19.9727 127.21 19.0419C126.695 18.1149 126.012 17.4138 125.157 16.9425C124.306 16.4713 123.384 16.2376 122.396 16.2376C121.409 16.2376 120.495 16.4713 119.656 16.9425C118.816 17.4138 118.149 18.111 117.653 19.0419C117.161 19.9688 116.911 21.1061 116.911 22.4499C116.911 24.4401 117.422 25.9786 118.441 27.0652C119.46 28.1519 120.745 28.6933 122.295 28.6933C123.283 28.6933 124.208 28.4596 125.071 27.9883Z" fill="#272A33"/>
<path d="M42.8446 18.629C42.8446 30.4148 33.2325 40 21.4262 40C13.122 40 5.4893 35.1431 1.99114 27.626C0.667617 24.7984 0 21.7721 0 18.629C0 13.2346 2.02237 8.08174 5.69231 4.12069C6.35993 3.40015 7.48824 3.3612 8.20661 4.02332C8.92889 4.68934 8.97184 5.81495 8.30422 6.5316C5.24333 9.83442 3.55672 14.1265 3.55672 18.6251C3.55672 21.2463 4.11502 23.7702 5.2121 26.1265C6.97289 29.9006 9.97521 32.8724 13.6022 34.6368C15.9955 35.8013 18.662 36.444 21.4184 36.444C24.2177 36.444 26.8726 35.7974 29.2385 34.6445C34.6731 31.9922 38.5695 26.6679 39.1903 20.3972H32.1588C31.175 20.3972 30.3785 19.6027 30.3785 18.6212C30.3785 17.6436 31.175 16.8451 32.1588 16.8451H41.0643C42.0443 16.8529 42.8446 17.6514 42.8446 18.629Z" fill="#272A33"/>
<path d="M21.4419 32.9113C29.3466 32.9113 35.7547 26.5186 35.7547 18.6329C35.7547 10.7471 29.3466 4.35437 21.4419 4.35437C13.5372 4.35437 7.12915 10.7471 7.12915 18.6329C7.12915 26.5186 13.5372 32.9113 21.4419 32.9113Z" fill="#F85C3A"/>
<path d="M21.4418 8.70886C23.8525 8.70886 25.8067 6.75932 25.8067 4.35443C25.8067 1.94955 23.8525 0 21.4418 0C19.0311 0 17.0769 1.94955 17.0769 4.35443C17.0769 6.75932 19.0311 8.70886 21.4418 8.70886Z" fill="#272A33"/>
<path d="M30.7455 33.7021C30.1365 32.74 29.543 31.743 28.9847 30.7459C23.3158 20.5998 23.2026 13.4294 23.2026 13.3632C23.2026 12.3817 22.4062 11.5872 21.4223 11.5872C20.4384 11.5872 19.642 12.3817 19.642 13.3632C19.642 13.4333 19.5756 20.5219 13.856 30.7498C13.3016 31.7468 12.7081 32.74 12.103 33.6943C11.8336 34.1227 11.7555 34.6446 11.8922 35.1276C12.0288 35.6144 12.3685 36.0195 12.8253 36.2415C15.4957 37.5424 18.4668 38.2279 21.4223 38.2279C24.4324 38.2279 27.3254 37.5618 30.0232 36.2493C30.4761 36.0273 30.8158 35.6222 30.9563 35.1393C31.093 34.6485 31.0188 34.1305 30.7455 33.7021Z" fill="#272A33"/>
</g>
<defs>
<clipPath id="clip0_108_9985">
<rect width="131.915" height="40" fill="white"/>
</clipPath>
</defs>
</svg>
