<svg width="1440" height="397" viewBox="0 0 1440 397" fill="none" xmlns="http://www.w3.org/2000/svg">
<g clip-path="url(#clip0_189_11331)">
<rect width="1440" height="396" transform="translate(0 0.280029)" fill="#272A33"/>
<g style="mix-blend-mode:overlay" opacity="0.2">
<g style="mix-blend-mode:overlay">
<path d="M84.8864 432.28V214.098H163.295V432.28H84.8864ZM124.091 191.371C113.485 191.371 104.394 187.867 96.8182 180.86C89.2424 173.852 85.4545 165.424 85.4545 155.575C85.4545 145.727 89.2424 137.299 96.8182 130.291C104.394 123.284 113.485 119.78 124.091 119.78C134.792 119.78 143.883 123.284 151.364 130.291C158.939 137.299 162.727 145.727 162.727 155.575C162.727 165.424 158.939 173.852 151.364 180.86C143.883 187.867 134.792 191.371 124.091 191.371ZM281.655 309.553V432.28H203.246V214.098H277.678V255.575H279.95C284.685 241.75 293.018 230.907 304.95 223.047C316.977 215.187 330.992 211.257 346.996 211.257C362.431 211.257 375.831 214.808 387.195 221.911C398.653 228.918 407.507 238.577 413.757 250.888C420.102 263.199 423.227 277.261 423.132 293.075V432.28H344.723V309.553C344.818 298.757 342.071 290.282 336.484 284.127C330.992 277.971 323.321 274.894 313.473 274.894C307.034 274.894 301.399 276.314 296.57 279.155C291.835 281.901 288.189 285.879 285.632 291.087C283.075 296.2 281.75 302.356 281.655 309.553ZM649.624 237.394C648.393 232.375 646.451 227.971 643.8 224.183C641.148 220.301 637.834 217.034 633.857 214.382C629.974 211.636 625.429 209.6 620.22 208.274C615.107 206.854 609.472 206.144 603.317 206.144C590.059 206.144 578.743 209.316 569.368 215.661C560.088 222.005 552.985 231.144 548.061 243.075C543.232 255.007 540.817 269.401 540.817 286.257C540.817 303.303 543.137 317.886 547.777 330.007C552.417 342.129 559.33 351.409 568.516 357.848C577.701 364.288 589.112 367.507 602.749 367.507C614.775 367.507 624.766 365.755 632.72 362.252C640.769 358.748 646.783 353.776 650.76 347.337C654.737 340.897 656.726 333.322 656.726 324.61L670.362 326.03H603.885V269.78H732.862V310.121C732.862 336.636 727.228 359.316 715.959 378.161C704.785 396.911 689.349 411.305 669.652 421.343C650.05 431.286 627.559 436.257 602.18 436.257C573.866 436.257 549.008 430.244 527.607 418.218C506.205 406.191 489.491 389.051 477.464 366.797C465.533 344.543 459.567 318.075 459.567 287.394C459.567 263.341 463.213 242.034 470.504 223.473C477.891 204.913 488.118 189.24 501.186 176.456C514.254 163.577 529.358 153.871 546.499 147.337C563.639 140.708 582.01 137.394 601.612 137.394C618.847 137.394 634.851 139.856 649.624 144.78C664.491 149.61 677.607 156.522 688.97 165.519C700.429 174.42 709.661 184.979 716.669 197.195C723.677 209.411 727.938 222.81 729.453 237.394H649.624ZM849.233 141.371V432.28H770.824V141.371H849.233ZM994.297 436.257C970.623 436.257 950.357 431.57 933.501 422.195C916.645 412.725 903.719 399.562 894.723 382.706C885.727 365.755 881.229 346.106 881.229 323.757C881.229 301.409 885.727 281.807 894.723 264.95C903.719 248 916.645 234.837 933.501 225.462C950.357 215.992 970.623 211.257 994.297 211.257C1017.97 211.257 1038.24 215.992 1055.09 225.462C1071.95 234.837 1084.87 248 1093.87 264.95C1102.87 281.807 1107.37 301.409 1107.37 323.757C1107.37 346.106 1102.87 365.755 1093.87 382.706C1084.87 399.562 1071.95 412.725 1055.09 422.195C1038.24 431.57 1017.97 436.257 994.297 436.257ZM994.865 378.303C1001.49 378.303 1007.22 376.077 1012.05 371.627C1016.88 367.176 1020.62 360.831 1023.27 352.593C1025.93 344.354 1027.25 334.553 1027.25 323.189C1027.25 311.731 1025.93 301.93 1023.27 293.786C1020.62 285.547 1016.88 279.202 1012.05 274.752C1007.22 270.301 1001.49 268.075 994.865 268.075C987.857 268.075 981.844 270.301 976.825 274.752C971.806 279.202 967.971 285.547 965.32 293.786C962.668 301.93 961.342 311.731 961.342 323.189C961.342 334.553 962.668 344.354 965.32 352.593C967.971 360.831 971.806 367.176 976.825 371.627C981.844 376.077 987.857 378.303 994.865 378.303Z" fill="white"/>
</g>
<g style="mix-blend-mode:overlay">
<path d="M1279.89 432.28V214.098H1358.3V432.28H1279.89ZM1319.09 191.371C1308.48 191.371 1299.39 187.867 1291.82 180.86C1284.24 173.852 1280.45 165.424 1280.45 155.575C1280.45 145.727 1284.24 137.299 1291.82 130.291C1299.39 123.284 1308.48 119.78 1319.09 119.78C1329.79 119.78 1338.88 123.284 1346.36 130.291C1353.94 137.299 1357.73 145.727 1357.73 155.575C1357.73 165.424 1353.94 173.852 1346.36 180.86C1338.88 187.867 1329.79 191.371 1319.09 191.371ZM1476.65 309.553V432.28H1398.25V214.098H1472.68V255.575H1474.95C1479.69 241.75 1488.02 230.907 1499.95 223.047C1511.98 215.187 1525.99 211.257 1542 211.257C1557.43 211.257 1570.83 214.808 1582.19 221.911C1593.65 228.918 1602.51 238.577 1608.76 250.888C1615.1 263.199 1618.23 277.261 1618.13 293.075V432.28H1539.72V309.553C1539.82 298.757 1537.07 290.282 1531.48 284.127C1525.99 277.971 1518.32 274.894 1508.47 274.894C1502.03 274.894 1496.4 276.314 1491.57 279.155C1486.83 281.901 1483.19 285.879 1480.63 291.087C1478.08 296.2 1476.75 302.356 1476.65 309.553ZM1844.62 237.394C1843.39 232.375 1841.45 227.971 1838.8 224.183C1836.15 220.301 1832.83 217.034 1828.86 214.382C1824.97 211.636 1820.43 209.6 1815.22 208.274C1810.11 206.854 1804.47 206.144 1798.32 206.144C1785.06 206.144 1773.74 209.316 1764.37 215.661C1755.09 222.005 1747.99 231.144 1743.06 243.075C1738.23 255.007 1735.82 269.401 1735.82 286.257C1735.82 303.303 1738.14 317.886 1742.78 330.007C1747.42 342.129 1754.33 351.409 1763.52 357.848C1772.7 364.288 1784.11 367.507 1797.75 367.507C1809.78 367.507 1819.77 365.755 1827.72 362.252C1835.77 358.748 1841.78 353.776 1845.76 347.337C1849.74 340.897 1851.73 333.322 1851.73 324.61L1865.36 326.03H1798.88V269.78H1927.86V310.121C1927.86 336.636 1922.23 359.316 1910.96 378.161C1899.78 396.911 1884.35 411.305 1864.65 421.343C1845.05 431.286 1822.56 436.257 1797.18 436.257C1768.87 436.257 1744.01 430.244 1722.61 418.218C1701.21 406.191 1684.49 389.051 1672.46 366.797C1660.53 344.543 1654.57 318.075 1654.57 287.394C1654.57 263.341 1658.21 242.034 1665.5 223.473C1672.89 204.913 1683.12 189.24 1696.19 176.456C1709.25 163.577 1724.36 153.871 1741.5 147.337C1758.64 140.708 1777.01 137.394 1796.61 137.394C1813.85 137.394 1829.85 139.856 1844.62 144.78C1859.49 149.61 1872.61 156.522 1883.97 165.519C1895.43 174.42 1904.66 184.979 1911.67 197.195C1918.68 209.411 1922.94 222.81 1924.45 237.394H1844.62ZM2044.23 141.371V432.28H1965.82V141.371H2044.23ZM2189.3 436.257C2165.62 436.257 2145.36 431.57 2128.5 422.195C2111.65 412.725 2098.72 399.562 2089.72 382.706C2080.73 365.755 2076.23 346.106 2076.23 323.757C2076.23 301.409 2080.73 281.807 2089.72 264.95C2098.72 248 2111.65 234.837 2128.5 225.462C2145.36 215.992 2165.62 211.257 2189.3 211.257C2212.97 211.257 2233.24 215.992 2250.09 225.462C2266.95 234.837 2279.87 248 2288.87 264.95C2297.87 281.807 2302.37 301.409 2302.37 323.757C2302.37 346.106 2297.87 365.755 2288.87 382.706C2279.87 399.562 2266.95 412.725 2250.09 422.195C2233.24 431.57 2212.97 436.257 2189.3 436.257ZM2189.87 378.303C2196.49 378.303 2202.22 376.077 2207.05 371.627C2211.88 367.176 2215.62 360.831 2218.27 352.593C2220.93 344.354 2222.25 334.553 2222.25 323.189C2222.25 311.731 2220.93 301.93 2218.27 293.786C2215.62 285.547 2211.88 279.202 2207.05 274.752C2202.22 270.301 2196.49 268.075 2189.87 268.075C2182.86 268.075 2176.84 270.301 2171.83 274.752C2166.81 279.202 2162.97 285.547 2160.32 293.786C2157.67 301.93 2156.34 311.731 2156.34 323.189C2156.34 334.553 2157.67 344.354 2160.32 352.593C2162.97 360.831 2166.81 367.176 2171.83 371.627C2176.84 376.077 2182.86 378.303 2189.87 378.303Z" fill="white"/>
</g>
</g>
</g>
<defs>
<clipPath id="clip0_189_11331">
<rect width="1440" height="396" fill="white" transform="translate(0 0.280029)"/>
</clipPath>
</defs>
</svg>
