<svg width="20" height="21" viewBox="0 0 20 21" fill="none" xmlns="http://www.w3.org/2000/svg">
<path d="M8.1015e-06 10.28C8.1015e-06 4.75703 4.47701 0.280029 10 0.280029C15.523 0.280029 20 4.75703 20 10.28C20 15.803 15.523 20.28 10 20.28H8.1015e-06L2.92901 17.351C1.99904 16.4235 1.26154 15.3213 0.758889 14.1078C0.256234 12.8943 -0.00166634 11.5935 8.1015e-06 10.28ZM4.82801 18.28H10C11.5823 18.28 13.129 17.8108 14.4446 16.9318C15.7602 16.0527 16.7855 14.8033 17.391 13.3415C17.9965 11.8797 18.155 10.2712 17.8463 8.71931C17.5376 7.16746 16.7757 5.742 15.6569 4.62318C14.538 3.50435 13.1126 2.74243 11.5607 2.43375C10.0089 2.12507 8.40035 2.28349 6.93854 2.88899C5.47673 3.49449 4.2273 4.51987 3.34825 5.83547C2.4692 7.15106 2.00001 8.69778 2.00001 10.28C2.00001 12.432 2.85101 14.445 4.34301 15.937L5.75701 17.351L4.82801 18.28ZM6.00001 11.28H14C14 12.3409 13.5786 13.3583 12.8284 14.1085C12.0783 14.8586 11.0609 15.28 10 15.28C8.93914 15.28 7.92173 14.8586 7.17158 14.1085C6.42144 13.3583 6.00001 12.3409 6.00001 11.28Z" fill="#FCFCFC"/>
</svg>
