<svg width="48" height="165" viewBox="0 0 48 165" fill="none" xmlns="http://www.w3.org/2000/svg">
<g clip-path="url(#clip0_189_11350)">
<path d="M23.9998 1.28003L32.4518 13.646L46.8258 17.864L37.6758 29.724L38.1058 44.696L23.9998 39.66L9.89383 44.696L10.3238 29.724L1.17383 17.864L15.5478 13.646L23.9998 1.28003ZM19.9998 24.28H15.9998C15.9998 26.3671 16.8154 28.3716 18.2726 29.8658C19.7299 31.3599 21.7133 32.2255 23.7998 32.2777C25.8862 32.3298 27.9105 31.5646 29.4406 30.1452C30.9707 28.7257 31.8855 26.7645 31.9898 24.68L31.9998 24.28H27.9998C28.0045 25.318 27.6055 26.3171 26.8871 27.0663C26.1687 27.8155 25.1872 28.2562 24.15 28.2951C23.1127 28.3341 22.1009 27.9683 21.3284 27.275C20.5558 26.5818 20.083 25.6154 20.0098 24.58L19.9998 24.28Z" fill="#F85C3A"/>
</g>
<line x1="25" y1="64.28" x2="25" y2="164.28" stroke="#272A33" stroke-width="2"/>
<defs>
<clipPath id="clip0_189_11350">
<rect width="48" height="48" fill="white" transform="translate(0 0.280029)"/>
</clipPath>
</defs>
</svg>
