<svg width="48" height="165" viewBox="0 0 48 165" fill="none" xmlns="http://www.w3.org/2000/svg">
<g clip-path="url(#clip0_189_11364)">
<path d="M24 44.28C12.954 44.28 4 35.326 4 24.28C4 13.234 12.954 4.28003 24 4.28003C35.046 4.28003 44 13.234 44 24.28C44 35.326 35.046 44.28 24 44.28ZM17 28.28V32.28H22V36.28H26V32.28H28C29.3261 32.28 30.5979 31.7532 31.5355 30.8156C32.4732 29.8779 33 28.6061 33 27.28C33 25.9539 32.4732 24.6822 31.5355 23.7445C30.5979 22.8068 29.3261 22.28 28 22.28H20C19.7348 22.28 19.4804 22.1747 19.2929 21.9871C19.1054 21.7996 19 21.5452 19 21.28C19 21.0148 19.1054 20.7605 19.2929 20.5729C19.4804 20.3854 19.7348 20.28 20 20.28H31V16.28H26V12.28H22V16.28H20C18.6739 16.28 17.4021 16.8068 16.4645 17.7445C15.5268 18.6822 15 19.9539 15 21.28C15 22.6061 15.5268 23.8779 16.4645 24.8156C17.4021 25.7532 18.6739 26.28 20 26.28H28C28.2652 26.28 28.5196 26.3854 28.7071 26.5729C28.8946 26.7605 29 27.0148 29 27.28C29 27.5452 28.8946 27.7996 28.7071 27.9871C28.5196 28.1747 28.2652 28.28 28 28.28H17Z" fill="#F85C3A"/>
</g>
<line x1="25" y1="64.28" x2="25" y2="164.28" stroke="#272A33" stroke-width="2"/>
<defs>
<clipPath id="clip0_189_11364">
<rect width="48" height="48" fill="white" transform="translate(0 0.280029)"/>
</clipPath>
</defs>
</svg>
