<svg width="48" height="165" viewBox="0 0 48 165" fill="none" xmlns="http://www.w3.org/2000/svg">
<g clip-path="url(#clip0_189_11357)">
<path d="M24 38.28H28V12.28L40.788 17.76C41.148 17.9143 41.4548 18.171 41.6702 18.4981C41.8857 18.8252 42.0003 19.2083 42 19.6V38.28H46V42.28H2V38.28H6V11.58C5.99995 11.193 6.11216 10.8144 6.32303 10.4899C6.5339 10.1654 6.83436 9.90911 7.188 9.752L22.594 2.904C22.7464 2.83629 22.9133 2.80777 23.0796 2.82104C23.2458 2.83432 23.4061 2.88896 23.5459 2.98C23.6856 3.07104 23.8004 3.19558 23.8797 3.34229C23.959 3.489 24.0004 3.65322 24 3.82V38.28Z" fill="#272A33"/>
</g>
<line x1="25" y1="64.28" x2="25" y2="164.28" stroke="#272A33" stroke-width="2"/>
<defs>
<clipPath id="clip0_189_11357">
<rect width="48" height="48" fill="white" transform="translate(0 0.280029)"/>
</clipPath>
</defs>
</svg>
